<svg xmlns="http://www.w3.org/2000/svg" xmlns:xlink="http://www.w3.org/1999/xlink" width="399.05" height="386.139" viewBox="0 0 399.05 386.139">
  <defs>
    <linearGradient id="linear-gradient" y1="0.5" x2="1" y2="0.5" gradientUnits="objectBoundingBox">
      <stop offset="0" stop-color="#fcec23" stop-opacity="0.502"/>
      <stop offset="0.152" stop-color="#fcd835" stop-opacity="0.502"/>
      <stop offset="0.41" stop-color="#fca366" stop-opacity="0.502"/>
      <stop offset="0.739" stop-color="#fe4db6" stop-opacity="0.502"/>
      <stop offset="1" stop-color="#f0f" stop-opacity="0.502"/>
    </linearGradient>
    <linearGradient id="linear-gradient-2" y1="0.5" x2="1" y2="0.5" gradientUnits="objectBoundingBox">
      <stop offset="0" stop-color="#c7ebee"/>
      <stop offset="1" stop-color="#29abe2"/>
    </linearGradient>
    <linearGradient id="linear-gradient-3" y1="0.5" x2="1" y2="0.5" gradientUnits="objectBoundingBox">
      <stop offset="0" stop-color="#f0f"/>
      <stop offset="0.102" stop-color="#f900ff"/>
      <stop offset="0.225" stop-color="#ea00ff"/>
      <stop offset="0.361" stop-color="#d200ff"/>
      <stop offset="0.504" stop-color="#af00ff"/>
      <stop offset="0.654" stop-color="#8300ff"/>
      <stop offset="0.81" stop-color="#4d00ff"/>
      <stop offset="0.967" stop-color="#0e00ff"/>
      <stop offset="1" stop-color="blue"/>
    </linearGradient>
    <radialGradient id="radial-gradient" cx="0.5" cy="0.5" r="0.406" gradientTransform="translate(-0.39 -0.16) scale(1.78 1.32)" gradientUnits="objectBoundingBox">
      <stop offset="0" stop-color="#fcee21"/>
      <stop offset="0.005" stop-color="#fcee20" stop-opacity="0.984"/>
      <stop offset="0.084" stop-color="#fcf119" stop-opacity="0.78"/>
      <stop offset="0.167" stop-color="#fdf413" stop-opacity="0.596"/>
      <stop offset="0.254" stop-color="#fdf70e" stop-opacity="0.435"/>
      <stop offset="0.346" stop-color="#fef909" stop-opacity="0.302"/>
      <stop offset="0.443" stop-color="#fefb06" stop-opacity="0.192"/>
      <stop offset="0.547" stop-color="#fefd03" stop-opacity="0.106"/>
      <stop offset="0.662" stop-color="#fefe01" stop-opacity="0.047"/>
      <stop offset="0.798" stop-color="#fefe00" stop-opacity="0.012"/>
      <stop offset="1" stop-color="#ff0" stop-opacity="0"/>
    </radialGradient>
    <radialGradient id="radial-gradient-2" cx="0.5" cy="0.5" r="0.501" gradientTransform="translate(0.001)" xlink:href="#radial-gradient"/>
    <radialGradient id="radial-gradient-3" cx="0.5" cy="0.5" r="0.501" gradientTransform="translate(0.001)" xlink:href="#radial-gradient"/>
  </defs>
  <g id="Groupe_11462" data-name="Groupe 11462" transform="translate(-8.849 -206.332)">
    <g id="Circle_Landing" data-name="Circle Landing" transform="translate(-862.218 -1782.97)" opacity="0.4">
      <g id="Groupe_11461" data-name="Groupe 11461" transform="translate(888.543 2159.457)">
        <path id="Tracé_13259" data-name="Tracé 13259" d="M1792.29,2634.181c-19.293-11.139-50.477-11.139-69.645,0-.091.053-.178.1-.266.158-12.341,7.278-16.543,17.453-12.636,26.722,2.077,4.934,6.454,9.614,13.123,13.465,19.3,11.14,50.487,11.14,69.658,0s19.063-29.2-.234-40.344Z" transform="translate(-1569.907 -2547.078)" fill="#2b2d2e"/>
        <path id="Tracé_13260" data-name="Tracé 13260" d="M1744.969,2592.693c-24.252-14-63.578-14-87.672,0-.647.376-1.278.757-1.887,1.143l1.231.49c.55-.349,1.118-.69,1.7-1.029,23.516-13.666,61.915-13.667,85.585,0s23.8,35.911.285,49.577-61.921,13.67-85.6,0c-8.684-5.014-14.2-11.182-16.541-17.659l-1.489.053c2.372,6.682,8.04,13.045,16.989,18.211,24.255,14,63.587,14,87.684,0s23.963-36.783-.292-50.786Z" transform="translate(-1513.602 -2510.811)" fill="#2b2d2e"/>
        <path id="Tracé_13261" data-name="Tracé 13261" d="M1692.263,2552.21c-29.106-16.8-76.324-16.8-105.241,0q-1.781,1.034-3.417,2.124l3.279,1.3q1.41-.923,2.933-1.81c27.387-15.915,72.1-15.915,99.669,0s27.718,41.82.331,57.736-72.11,15.919-99.682,0c-10.474-6.047-16.984-13.533-19.536-21.369l-3.96.145c2.633,8.371,9.538,16.382,20.719,22.837,29.113,16.809,76.33,16.808,105.254,0s28.763-44.155-.35-60.963Z" transform="translate(-1452.14 -2475.417)" fill="#2b2d2e"/>
        <path id="Tracé_13262" data-name="Tracé 13262" d="M1579.15,2469.355c-39.052-22.547-102.391-22.546-141.189,0s-38.6,59.239.454,81.786c16.435,9.489,37.17,14.985,58.565,16.485l-.206-4.9c-19.176-1.492-37.7-6.5-52.458-15.015-35.775-20.655-35.965-54.268-.415-74.927s93.573-20.655,129.349,0c23.18,13.383,31.425,32.2,24.7,49.409l7.932,1.659c7.754-18.938-1.173-39.743-26.727-54.5Z" transform="translate(-1321.111 -2402.973)" fill="#2b2d2e"/>
        <path id="Tracé_13263" data-name="Tracé 13263" d="M1377.211,2523.135c-42.62-24.607-42.849-64.645-.505-89.252s111.468-24.608,154.089,0,42.843,64.645.5,89.252-111.462,24.608-154.082,0Zm154.97-90.059c-21.019-12.136-48.912-18.82-78.542-18.819s-57.447,6.684-78.33,18.82-32.331,28.271-32.232,45.431,11.724,33.3,32.743,45.435,48.916,18.818,78.545,18.818,57.444-6.682,78.327-18.818,32.328-28.272,32.235-45.433-11.727-33.3-32.746-45.433Z" transform="translate(-1266.328 -2371.233)" fill="#2b2d2e"/>
        <path id="Tracé_13264" data-name="Tracé 13264" d="M1403.6,2338.629l-3.394.585c15.107,24.627,10.045,52.488-15.23,74.862l2.837,1.171c15.967-14.051,24.49-30.518,24.39-47.755a55.5,55.5,0,0,0-8.6-28.862Zm-40.951-35.444c-27.7-14.541-63.218-22.5-100.8-22.5-40.028,0-77.614,9.028-105.825,25.423s-43.681,38.2-43.547,61.383,15.839,44.987,44.235,61.381,66.087,25.427,106.115,25.424a240.853,240.853,0,0,0,67.784-9.355l-1.727-1.775c-54.837,16.077-123.762,10.84-169.741-15.705-57.273-33.067-57.576-86.87-.672-119.939,55.173-32.063,144.178-33.038,201.741-2.924l2.433-1.414Z" transform="translate(-1074.666 -2260.217)" fill="#2b2d2e"/>
        <path id="Tracé_13265" data-name="Tracé 13265" d="M1274.643,2233.96c-16.467-9.507-35.657-16.87-57.019-21.882a290.759,290.759,0,0,0-129.436,0c-21.305,5.012-40.413,12.376-56.772,21.882s-29.009,20.6-37.6,32.958c-8.292,11.936-12.458,24.549-12.382,37.488s4.378,25.554,12.8,37.487q.82,1.162,1.687,2.309l3.325-.635c-27.135-35.745-15.642-78.992,34.608-108.194,65.5-38.063,172.425-38.063,238.35,0s66.278,100,.781,138.064c-40.757,23.685-97.555,32.637-150.534,26.842l-.841,1.99a294.32,294.32,0,0,0,32.369,1.759,282.944,282.944,0,0,0,64.68-7.293c21.308-5.014,40.407-12.375,56.772-21.886s29.012-20.6,37.6-32.954c8.288-11.938,12.451-24.549,12.379-37.489s-4.378-25.551-12.8-37.487c-8.72-12.355-21.494-23.447-37.967-32.957Z" transform="translate(-965.752 -2197.13)" fill="#2b2d2e"/>
        <path id="Tracé_13266" data-name="Tracé 13266" d="M1208.487,2189.864c-17.969-10.375-38.9-18.411-62.217-23.877a299.019,299.019,0,0,0-40.156-6.53l.248.653c37.124,3.56,72.777,13.613,101.431,30.156,73.029,42.163,73.415,110.769.867,152.93s-191,42.164-264.025,0-73.409-110.765-.854-152.929a200.057,200.057,0,0,1,27.943-13.351l-.232-.622a202.146,202.146,0,0,0-28.409,13.57c-17.859,10.378-31.665,22.478-41.026,35.964-9.047,13.023-13.589,26.787-13.513,40.906s4.783,27.88,13.973,40.906c9.516,13.484,23.455,25.585,41.424,35.96s38.909,18.411,62.223,23.881a317.219,317.219,0,0,0,141.239,0c23.249-5.468,44.1-13.5,61.954-23.881s31.656-22.476,41.02-35.961c9.043-13.025,13.592-26.789,13.512-40.906s-4.779-27.882-13.973-40.905c-9.516-13.488-23.455-25.585-41.431-35.964Z" transform="translate(-888.543 -2159.457)" fill="#2b2d2e"/>
      </g>
    </g>
    <g id="Groupe_9349" data-name="Groupe 9349" transform="translate(8.849 206.332)">
      <path id="Tracé_3723" data-name="Tracé 3723" d="M2.932,84.47s-8.357-10.82,3.145-18.7,21.762-.149,35.144-11.45.346-27,22.4-46.735,57.891,2.276,51.052,28.892S79.287,79.9,41.816,75.732C17.281,73.65,3.237,70.054,2.932,84.47Z" transform="translate(208.871 30.509)" opacity="0.3" fill="url(#linear-gradient)"/>
      <path id="Tracé_3727" data-name="Tracé 3727" d="M19.814,22.238C35.647,10.671,68.065-7.132,82.75,3.008s1.4,50.7,25.524,65.034,24.125,22.377,25.174,34.964-.35,53.146-13.636,61.887S92.54,184.123,80.3,177.48s-91.257-33.566-79.019-51.747,41.862-42.307,62.189-20.979,27.319,34.964,28.718,27.971,4.9-24.475-37.412-40.559S10.642,28.94,19.814,22.238Z" transform="translate(52.446 110.487)" fill="#d3d5e0"/>
      <path id="Tracé_3728" data-name="Tracé 3728" d="M34.935,7.716,40.623.211S26.937-2.194,0,9.247q.584.488,1.169.967l0,0,.566.462.026.021.54.436.05.04q.258.208.516.412l.07.056.488.384.1.077L4,12.47l.109.084.45.345.125.1.428.324.142.107.406.3.159.119.383.281.176.129.364.262.188.135c.119.086.238.169.357.252l.188.133c.117.082.234.162.35.243l.188.13.382.259.148.1q.263.176.523.346a21.122,21.122,0,0,1,1.785-1.54q.7-.539,1.436-1.023t1.5-.916q.765-.432,1.554-.815.708-.345,1.43-.651l.38-.159q.693-.286,1.392-.541.743-.27,1.486-.505l.257-.081A51.633,51.633,0,0,1,34.935,7.716Z" transform="translate(147.093 178.529)" fill="#494878"/>
      <path id="Tracé_3729" data-name="Tracé 3729" d="M0,24.976s16.108,14.7,54.582,34.108C57.7,60.756,59.154,64.1,61.273,70.9S76.59,118.523,76.59,118.523a11.478,11.478,0,0,0,8.548,1.673c5.241-.892,5.464-5.056,5.464-5.056L77.667,56.109a21.242,21.242,0,0,0-5.353-8.029C68.6,44.809,36.478,19.234,36.478,19.234L22.8,0Z" transform="translate(115.382 166.269)" fill="#575a89"/>
      <g id="Groupe_9324" data-name="Groupe 9324" transform="translate(199.168 281.837)">
        <path id="Tracé_3730" data-name="Tracé 3730" d="M0,3.123a67.067,67.067,0,0,1,.613,8.2C2.4,13.94,14.275,22.025,15.445,9.981A15.282,15.282,0,0,1,10.092,0,17.9,17.9,0,0,1,0,3.123Z" transform="translate(0.333 0)" fill="#ffd5d8"/>
        <path id="Tracé_3731" data-name="Tracé 3731" d="M.9,0S7.582,7.25,12.21,5.187C11.318,3.124,12.2,0,14.963,0c1.373.112,5.109,5.22,9.96,7.21s6.3,5.838,6.189,7.734c0,0,.514,1.728.006,2.342s-2.961,4.349-11.883,1.506c-5.8-1.84-4.74-3.513-9.2-5.13s-11.178-4.035-9.7-7.3C-.169,3.57-.2-.056.9,0Z" transform="translate(0 9.199)" fill="#494457"/>
        <path id="Tracé_3732" data-name="Tracé 3732" d="M19.11,12.435c8.922,2.844,11.375-.892,11.883-1.505s-.006-2.342-.006-2.342-1.345,3.655-7.751,2.9S13.051,5.5,6.694,3.829C2.048,2.267.208,0,.208,0c-1.475,3.27,5.241,5.688,9.7,7.3S13.311,10.594,19.11,12.435Z" transform="translate(0.125 15.557)" fill="#be6f74"/>
      </g>
      <g id="Groupe_9325" data-name="Groupe 9325" transform="translate(158.473 212.295)">
        <path id="Tracé_3733" data-name="Tracé 3733" d="M4.5,0A67.026,67.026,0,0,1,0,6.882c-.176,3.166,4.343,16.8,12.593,7.951A15.28,15.28,0,0,1,14.412,3.654,17.905,17.905,0,0,1,4.5,0Z" transform="translate(4.244 0)" fill="#ffd5d8"/>
        <path id="Tracé_3734" data-name="Tracé 3734" d="M5.5.11S6.4,9.925,11.33,11.1c.546-2.18,3.141-4.128,5.338-2.445,1.022.923.885,7.25,3.528,11.779s1.456,8.466.216,9.9c0,0-.643,1.685-1.419,1.863S14,33.854,8.642,26.174c-3.487-4.985-1.629-5.67-4.189-9.665s-6.425-10-3.266-11.7C2.483,2.292,4.664-.6,5.5.11Z" transform="translate(0 5.063)" fill="#494457"/>
        <path id="Tracé_3735" data-name="Tracé 3735" d="M8.642,21.362c5.357,7.68,9.576,6.2,10.352,6.026s1.419-1.863,1.419-1.863-3.29,2.085-7.918-2.408S8.043,12.174,4.011,6.983C1.27,2.919,1.187,0,1.187,0c-3.159,1.7.706,7.7,3.266,11.7S5.155,16.377,8.642,21.362Z" transform="translate(0 9.875)" fill="#be6f74"/>
      </g>
      <path id="Tracé_3736" data-name="Tracé 3736" d="M77.987,5.947C73.08,1.933,32.041,0,32.041,0L0,6.394s9.761,9.9,19.241,17.664q-.584-.479-1.169-.967c26.937-11.441,40.623-9.036,40.623-9.036L53.007,21.56a51.63,51.63,0,0,0-14.648,2.171A51.63,51.63,0,0,1,53.007,21.56L35.758,47.433c4.526,6.84,12.788,7.881,12.788,7.881s15.762-20.52,23.94-30.333S82.894,9.962,77.987,5.947Z" transform="translate(128.858 164.686)" fill="#575a89"/>
      <g id="Groupe_9328" data-name="Groupe 9328" transform="translate(348.054 88.9)">
        <g id="Groupe_9327" data-name="Groupe 9327" transform="translate(8.539 98.422)">
          <g id="Groupe_9326" data-name="Groupe 9326" transform="translate(0 0)">
            <path id="Tracé_3737" data-name="Tracé 3737" d="M22.383,2.227c5.144,2.97,5.17,7.785.06,10.755s-13.423,2.97-18.567,0S-1.3,5.2,3.815,2.228,17.239-.743,22.383,2.227Z" transform="translate(0 0)" fill="#73b239"/>
          </g>
        </g>
        <path id="Tracé_3738" data-name="Tracé 3738" d="M34.279.4c0,.086-.01.172-.019.259s-.018.15-.028.224-.024.171-.041.256-.03.151-.047.226-.038.167-.061.25-.043.151-.066.226-.053.165-.082.248-.054.147-.083.221-.071.173-.11.26-.066.144-.1.216-.086.171-.132.257-.1.182-.152.272l-.038.063c-.079.131-.164.26-.252.389l-.052.073q-.136.193-.286.382l-.059.071c-.089.109-.182.219-.278.327l-.079.089c-.114.125-.233.249-.357.372l-.069.066c-.094.092-.193.182-.293.272-.08.072-.163.144-.247.216s-.155.131-.236.2-.177.14-.268.209-.168.128-.255.191-.192.136-.289.2-.18.124-.273.185-.206.131-.311.2c-.131.081-.26.163-.4.242-.255.149-.52.29-.787.427-.077.04-.155.078-.233.116q-.312.155-.634.3c-.072.032-.144.066-.217.1q-.419.182-.853.348L26.44,8.4q-.366.136-.742.26l-.31.1q-.207.065-.416.127c-.118.035-.236.069-.355.1-.141.039-.283.077-.426.114-.119.031-.24.061-.36.091-.145.035-.29.068-.436.1-.121.027-.242.054-.364.079-.148.031-.3.059-.446.088l-.346.065c-.32.056-.643.109-.968.154l-.137.018q-.425.057-.853.1l-.327.032q-.274.025-.55.046l-.347.024c-.192.012-.383.021-.575.029l-.324.014c-.167,0-.334.007-.5.01-.116,0-.232,0-.348,0-.179,0-.357,0-.535-.006-.105,0-.21,0-.316,0-.164,0-.328-.012-.492-.019-.113,0-.226-.008-.339-.014-.178-.01-.355-.023-.532-.036-.1-.007-.2-.012-.3-.021-.213-.017-.426-.039-.637-.062l-.187-.018q-.411-.046-.818-.1l-.129-.02c-.233-.034-.467-.07-.7-.11-.1-.017-.193-.036-.29-.054-.177-.032-.353-.065-.528-.1-.092-.019-.182-.04-.274-.06-.192-.042-.385-.084-.576-.13-.106-.025-.211-.053-.316-.079-.174-.045-.348-.09-.52-.138L9.535,8.9q-.409-.119-.808-.251L8.584,8.6c-.306-.1-.607-.215-.9-.331-.121-.047-.24-.1-.359-.145-.1-.039-.191-.078-.285-.118-.134-.057-.266-.117-.4-.178-.087-.04-.175-.078-.261-.119-.144-.068-.285-.14-.425-.211-.071-.036-.143-.07-.212-.107q-.314-.164-.617-.338C1.751,5.109.066,2.553.073,0L0,25.7c-.007,2.552,1.678,5.109,5.051,7.056.2.117.408.229.616.338.071.037.142.071.213.107.14.071.281.143.425.211.086.041.174.079.261.119.131.06.262.12.4.178.094.04.19.079.285.118s.18.077.272.113l.087.032q.446.174.9.331l.143.046q.4.133.808.251c.045.013.09.029.135.042l.157.041c.172.048.345.093.519.138.106.027.21.054.317.079.191.046.383.089.576.13.072.015.143.034.215.049l.058.011c.175.036.351.068.527.1.1.018.193.038.29.054.231.04.463.076.7.11l.124.019h.007q.406.057.818.1l.184.018c.213.022.426.044.639.062l.015,0c.094.008.188.012.281.019.178.013.354.027.532.036.113.006.226.009.339.014.164.007.328.015.493.019l.04,0c.092,0,.184,0,.275,0,.179,0,.357.006.536.006.116,0,.232,0,.348,0,.167,0,.334,0,.5-.01l.093,0c.077,0,.155-.008.232-.012.192-.008.384-.017.575-.029l.348-.024q.275-.021.549-.046c.064-.006.129-.01.193-.016.045,0,.088-.011.133-.016q.429-.044.854-.1l.137-.017q.487-.068.968-.155l.091-.014c.085-.015.169-.034.254-.05.149-.028.3-.057.446-.088.122-.026.243-.053.364-.08.146-.032.291-.066.435-.1.12-.029.24-.06.359-.091q.214-.055.426-.114.179-.05.355-.1.209-.061.416-.127c.061-.019.122-.036.182-.056.044-.014.085-.03.129-.045q.375-.124.741-.261l.155-.056q.434-.165.853-.348l.217-.1q.322-.144.635-.3l.233-.116c.268-.137.532-.278.788-.427l.209-.123c.064-.039.124-.079.188-.119.1-.065.209-.13.31-.2s.183-.123.273-.185.195-.135.289-.2.17-.127.254-.191.181-.139.268-.21.158-.13.236-.2.166-.143.247-.215c.033-.03.069-.059.1-.089.066-.061.128-.123.192-.184l.069-.066q.186-.184.357-.372c.027-.029.053-.059.08-.089.1-.108.189-.217.278-.327l.058-.071.027-.033c.091-.116.176-.232.26-.35l.051-.073c.089-.129.174-.258.253-.389.013-.021.025-.042.037-.063.029-.049.059-.1.088-.148s.041-.083.064-.124q.069-.128.133-.257c.035-.072.068-.144.1-.216s.075-.173.109-.26c.015-.039.034-.077.049-.116s.022-.07.035-.1c.029-.083.056-.165.082-.248s.046-.15.066-.226.042-.167.061-.25c.01-.045.024-.09.033-.135s.009-.061.014-.091c.016-.085.028-.171.04-.256s.021-.15.028-.225.014-.172.018-.258c0-.05.009-.1.011-.151s0-.1,0-.15L34.292.1C34.292.2,34.284.3,34.279.4Z" transform="translate(4.486 105.979)" fill="#eff3f8"/>
        <path id="Tracé_3739" data-name="Tracé 3739" d="M29.169,2.9c-6.7-3.87-17.537-3.869-24.2,0s-6.624,10.145.079,14.015,17.536,3.87,24.2,0S35.872,6.772,29.169,2.9ZM26.423,15.288c-5.11,2.97-13.422,2.97-18.567,0S2.685,7.5,7.8,4.533s13.424-2.97,18.568,0S31.533,12.318,26.423,15.288Z" transform="translate(4.559 96.117)" fill="#fff"/>
        <path id="Tracé_3740" data-name="Tracé 3740" d="M10.506,10.776A60.514,60.514,0,0,1,15.166,0s6.051,6.514,5.675,12.089,1.4,8.943,4.206,12.587,1.891,15.42-1.228,21.264,6.061,15.643,4.395,25.215c-3.147,6.218,6.793,18.077,2.088,36.561L7.63,101.661A41.807,41.807,0,0,1,4.962,83.2c-6.494-8.19-6.531-18.885-.6-27.762,1.54-4.931,1.915-8.837.088-12s-5.218-9.63,3.263-18.05C10.6,21.263,9.286,15.347,10.506,10.776Z" transform="translate(3.209 0)" fill="#8dc657"/>
        <path id="Tracé_3741" data-name="Tracé 3741" d="M38.437,10.112A52.676,52.676,0,0,0,36.939,0s-6.554,4.12-7.491,8.9-3.183,7.21-6.367,9.644S18.025,31.086,19.336,36.7,10.722,48.5,9.973,56.929C11.223,62.867.2,70.61,0,87.217H20.433a36.413,36.413,0,0,0,6.394-14.933c7.3-5.431,9.738-14.419,6.741-23.221-.187-4.495.375-7.865,2.622-10.112s6.554-6.929,1.31-15.918C36,18.914,38.437,14.232,38.437,10.112Z" transform="translate(11.002 21.934)" fill="#73b239"/>
        <path id="Tracé_3742" data-name="Tracé 3742" d="M15.233,28.886c-.38-4.276-5.416-7.412-4.75-10.262s-.285-7.982-1.9-9.217a7.423,7.423,0,0,1-3.23-4.894C4.876,2.09,1.55,0,1.55,0A26.736,26.736,0,0,0,.79,5.131c0,2.09,1.235,4.466.475,6.556C-1.4,16.248.79,18.624,1.93,19.764s1.425,2.85,1.33,5.131A10.16,10.16,0,0,0,6.681,36.677c1.2,5.9,4.093,9.156,6.842,10.953h6.527C21.689,36.824,14.519,32.275,15.233,28.886Z" transform="translate(0 63.561)" fill="#73b239"/>
      </g>
      <path id="Tracé_3743" data-name="Tracé 3743" d="M69.083,3.137c.707-1.111,1.094-1.809.711-2.452-.274-.46-1.835.153-3.805,1.008-3.144,1.363-7.333,3.343-9.013,2.57C58.514,2.84,59.192,1.229,59.1.483s-1.33-.639-2.047.4-5.773,4.12-6.141,5.453c-3.706,1.667-28.473,13.208-29.74,12.8s-9.9-17.006-9.9-17.006a11.415,11.415,0,0,1-2,2.171A21.368,21.368,0,0,1,0,8.414l.041.072C.858,9.934,13.8,32.746,18.35,33c.936.052,2.643-.577,4.836-1.639C31.436,27.364,46.574,17.217,53.53,13.9c.471-.224.906-.419,1.3-.576,6.6-1.5,10.3-2.351,12.022-6.211.023-.051.045-.1.068-.15A28.731,28.731,0,0,1,69.083,3.137Z" transform="translate(136.552 120.655)" fill="#ffd5d8"/>
      <path id="Tracé_3744" data-name="Tracé 3744" d="M27.435,5.806C22.753,8.485,9.926,9.2,3.57,14.33S1.284,36.69,1.284,36.69a16.039,16.039,0,0,0,14.33-2.732s1,50.742,15.576,43.6c6.691-7.137,11.518-20.291,25.758-21.818,13.5-2.716,16.322-4.054,16.322-4.054S57.806,42.173,55.278,23.438,51.486-7.96,27.435,5.806Z" transform="translate(83.445 112.996)" fill="#fff"/>
      <path id="Tracé_3745" data-name="Tracé 3745" d="M7.286,23.4c3.7-1.971,25.963-5.983,34.341-13.473a37.744,37.744,0,0,1-1.183-5.56c-.2-1.5-.4-2.958-.595-4.369,0,.02-.009,8.387-6.989,11.209S8.748,25.834,0,9.722l.781,5.167s1,50.741,15.576,43.6a46.17,46.17,0,0,0,3.473-4.3v0s-8.245.29-9.948-5.658S2.825,25.781,7.286,23.4Z" transform="translate(98.854 132.065)" fill="#f0f0f2"/>
      <path id="Tracé_3746" data-name="Tracé 3746" d="M2.5,0A17.5,17.5,0,0,1,0,1.567,11.411,11.411,0,0,0,2.5,0Z" transform="translate(96.175 146.954)" fill="none"/>
      <path id="Tracé_3747" data-name="Tracé 3747" d="M1.152,0S3.829,5.724,3.234,9.777C2.453,10.074,0,11.152,0,11.152s2.64,6.617,12.862,4.572c2.156-.595,3.717,5.39,6.988,7.918.818,0-3.2-8.587-2.082-9.591S22.4,9.646,20.557,6.3C12.695,6.3,1.152,0,1.152,0Z" transform="translate(101.49 110.487)" fill="#ffc2c7"/>
      <path id="Tracé_3748" data-name="Tracé 3748" d="M22.94,0s2.528,2.974,2.528,11.078c.892,3.494,2.453,15.315-2.825,16.208S9.558,27.36,5.1,19.256C2.718,19.107-1.557,15.5.581,12.621S5.543,0,5.543,0Z" transform="translate(97.339 91.231)" fill="#ffd5d8"/>
      <path id="Tracé_3749" data-name="Tracé 3749" d="M.168,11.152S2.4-4.795,21.245,1.45c3.346,1.45,4.963,2.119,6.3,2.23s1.45,6.468-3.178,7.806-13.382.446-14.832,1.729a9.216,9.216,0,0,1-.613,6.245c-.725,1.784.335,4.294.335,4.294l-1.115.335S6.915,19.126,2.9,21.133C1.84,19.907-.669,14.944.168,11.152Z" transform="translate(94.871 82.718)" fill="#2d283d"/>
      <path id="Tracé_3750" data-name="Tracé 3750" d="M.45.346,0,0Z" transform="translate(150.256 191.084)" fill="#c3c8d4"/>
      <path id="Tracé_3751" data-name="Tracé 3751" d="M.468.365,0,0Z" transform="translate(149.636 190.635)" fill="#c3c8d4"/>
      <path id="Tracé_3752" data-name="Tracé 3752" d="M.428.324,0,0Z" transform="translate(150.874 191.525)" fill="#c3c8d4"/>
      <path id="Tracé_3753" data-name="Tracé 3753" d="M.383.281,0,0Z" transform="translate(152.094 192.377)" fill="#c3c8d4"/>
      <path id="Tracé_3754" data-name="Tracé 3754" d="M.405.3,0,0Z" transform="translate(151.487 191.956)" fill="#c3c8d4"/>
      <path id="Tracé_3755" data-name="Tracé 3755" d="M.488.384,0,0Z" transform="translate(149.006 190.174)" fill="#c3c8d4"/>
      <path id="Tracé_3756" data-name="Tracé 3756" d="M1.486,0Q.744.236,0,.505.742.235,1.486,0Z" transform="translate(165.826 188.498)" fill="#c3c8d4"/>
      <path id="Tracé_3757" data-name="Tracé 3757" d="M0,1.194q.263.176.523.346A21.04,21.04,0,0,1,2.308,0,21.04,21.04,0,0,0,.523,1.54Q.264,1.37,0,1.194Z" transform="translate(155.083 193.107)" fill="#c3c8d4"/>
      <path id="Tracé_3758" data-name="Tracé 3758" d="M.516.412Q.258.208,0,0,.258.208.516.412Z" transform="translate(148.376 189.706)" fill="#c3c8d4"/>
      <path id="Tracé_3759" data-name="Tracé 3759" d="M.566.462Q.283.232,0,0,.283.232.566.462Z" transform="translate(147.105 188.748)" fill="#c3c8d4"/>
      <path id="Tracé_3760" data-name="Tracé 3760" d="M.54.436,0,0Z" transform="translate(147.741 189.23)" fill="#c3c8d4"/>
      <path id="Tracé_3761" data-name="Tracé 3761" d="M1.43,0Q.709.307,0,.651.708.306,1.43,0Z" transform="translate(162.378 189.703)" fill="#c3c8d4"/>
      <path id="Tracé_3762" data-name="Tracé 3762" d="M.382.259C.255.173.128.088,0,0,.128.088.255.173.382.259Z" transform="translate(154.456 193.942)" fill="#c3c8d4"/>
      <path id="Tracé_3763" data-name="Tracé 3763" d="M1.436,0Q.7.484,0,1.023.7.484,1.436,0Z" transform="translate(157.542 192.085)" fill="#c3c8d4"/>
      <path id="Tracé_3764" data-name="Tracé 3764" d="M.364.263,0,0Z" transform="translate(152.695 192.787)" fill="#c3c8d4"/>
      <path id="Tracé_3765" data-name="Tracé 3765" d="M1.554,0Q.767.383,0,.815.765.383,1.554,0Z" transform="translate(160.709 190.353)" fill="#c3c8d4"/>
      <path id="Tracé_3766" data-name="Tracé 3766" d="M1.5,0Q.737.432,0,.916.736.431,1.5,0Z" transform="translate(159.09 191.168)" fill="#c3c8d4"/>
      <path id="Tracé_3767" data-name="Tracé 3767" d="M1.392,0Q.694.254,0,.54.693.255,1.392,0Z" transform="translate(164.325 189.003)" fill="#c3c8d4"/>
      <path id="Tracé_3768" data-name="Tracé 3768" d="M.357.252,0,0Z" transform="translate(153.289 193.184)" fill="#c3c8d4"/>
      <path id="Tracé_3769" data-name="Tracé 3769" d="M.35.243,0,0Z" transform="translate(153.875 193.569)" fill="#c3c8d4"/>
      <path id="Tracé_3770" data-name="Tracé 3770" d="M63.471,8.354c-20.327-21.328-49.952,2.8-62.189,20.978A7.044,7.044,0,0,0,.008,33.687C12.774,21.729,78.316,71.63,83.018,62.826c4.843-9.069,8.426-23.4,9.067-26.066C90.47,42.7,83.343,29.2,63.471,8.354Z" transform="translate(52.447 206.887)" fill="#ebecf0"/>
      <path id="Tracé_3771" data-name="Tracé 3771" d="M0,.146s11.292-2.438,18.738,12.58c-1.32,5.5-8.624,7.881-12.788,9.219Z" transform="translate(128.859 112.853)" fill="#fff"/>
      <path id="Tracé_3772" data-name="Tracé 3772" d="M.006,0C.006.086,0,.172,0,.257V0Z" transform="translate(211.71 80.042)" fill="#d8d2fe"/>
      <path id="Tracé_3773" data-name="Tracé 3773" d="M12,0s9.33,23.345,13,26.542S52.9,40.3,52.9,40.3,64.047,40.9,64.95,52.509c-.652,1.224-3.707,6.255-5.119,3.95s-.744-4.907-3.941-6.542-6.134-2.045-6.431-3.457c-4.312-.892-26.66-6.052-33.128-12.966S0,5.613,0,5.613Z" transform="translate(85.621 144.197)" fill="#ffd5d8"/>
      <g id="Groupe_9335" data-name="Groupe 9335" transform="translate(0 151.72)">
        <g id="Groupe_9330" data-name="Groupe 9330" transform="translate(19.605 93.25)">
          <g id="Groupe_9329" data-name="Groupe 9329" transform="translate(0 0)">
            <path id="Tracé_3774" data-name="Tracé 3774" d="M24.4,2.428c5.608,3.238,5.637,8.488.065,11.726s-14.635,3.238-20.243,0S-1.412,5.667,4.16,2.429,18.8-.81,24.4,2.428Z" transform="translate(0)" fill="#87c259"/>
          </g>
        </g>
        <path id="Tracé_3775" data-name="Tracé 3775" d="M37.373.434c-.005.094-.011.188-.02.282s-.02.163-.031.245-.027.187-.044.28-.033.164-.051.247-.042.182-.066.272-.047.164-.072.246-.057.18-.089.27-.059.161-.091.241-.077.189-.119.283q-.053.118-.11.236c-.046.094-.094.187-.145.28s-.107.2-.165.3l-.041.069c-.086.142-.179.283-.276.424L36,4.184q-.148.21-.312.417l-.064.078c-.1.12-.2.238-.3.356l-.087.1q-.187.2-.389.4l-.075.072c-.1.1-.21.2-.319.3-.087.079-.178.157-.269.235s-.169.144-.257.214-.193.153-.292.229-.183.139-.277.208-.209.148-.315.221-.2.135-.3.2-.224.143-.339.214c-.142.088-.283.177-.432.264-.279.162-.567.316-.858.465-.084.043-.169.085-.254.127q-.341.168-.692.326c-.079.035-.157.072-.236.106-.3.132-.615.259-.93.379-.056.022-.113.041-.17.062q-.4.148-.809.284l-.338.109q-.226.072-.454.139c-.128.038-.257.075-.387.111q-.231.064-.465.124c-.13.033-.261.067-.392.1-.157.038-.316.074-.474.11-.132.029-.264.059-.4.087-.161.034-.324.065-.487.1-.125.024-.25.048-.376.071-.35.062-.7.119-1.055.168l-.149.019q-.463.062-.931.111-.178.019-.356.035c-.2.019-.4.035-.6.05-.126.009-.252.018-.379.026-.209.013-.418.023-.627.032-.118,0-.236.011-.354.015-.182.006-.364.008-.546.011-.127,0-.253,0-.38.005-.195,0-.389,0-.584-.006-.115,0-.23,0-.344,0-.179,0-.358-.013-.537-.021-.123-.005-.247-.009-.37-.015-.194-.01-.387-.025-.58-.04-.108-.008-.216-.013-.324-.023-.232-.019-.464-.043-.7-.067-.068-.007-.136-.012-.2-.02q-.447-.05-.892-.113l-.14-.022c-.255-.037-.509-.076-.761-.12-.106-.019-.21-.04-.316-.059-.192-.036-.385-.071-.575-.109-.1-.02-.2-.044-.3-.065-.21-.045-.42-.092-.628-.142-.116-.028-.23-.057-.345-.087q-.285-.072-.566-.15L10.4,9.7q-.445-.129-.881-.273c-.052-.017-.1-.033-.157-.051-.334-.113-.662-.234-.986-.36-.132-.051-.262-.1-.392-.158-.1-.043-.208-.085-.31-.129-.146-.062-.289-.128-.432-.194-.095-.043-.191-.085-.284-.13-.157-.075-.31-.152-.464-.23-.077-.039-.155-.076-.231-.116q-.342-.179-.672-.369C1.908,5.57.071,2.783.079,0L0,28.021c-.008,2.783,1.829,5.57,5.507,7.693q.33.191.672.369c.076.04.155.077.232.116.153.078.307.156.463.23.094.044.19.087.285.13.143.065.286.131.432.193.1.044.207.086.31.129s.2.084.3.123l.095.035c.324.126.652.247.986.36.052.018.1.033.156.05q.436.144.881.274c.049.014.1.032.146.046l.172.045q.281.078.567.15c.115.029.229.059.345.087.208.05.418.1.628.142.079.017.156.036.234.053l.064.012c.191.039.383.074.575.109.105.019.21.041.316.059.252.043.505.082.759.12l.135.021h.007q.444.062.891.113l.2.02c.232.024.464.048.7.067l.017,0c.1.008.2.013.306.021.193.014.386.029.58.039.123.007.247.01.37.015.179.008.358.016.537.021l.044,0c.1,0,.2,0,.3,0,.195,0,.389.006.584.006.127,0,.253,0,.38-.005.182,0,.364,0,.546-.011l.1,0c.084,0,.169-.009.253-.013.209-.009.418-.019.627-.032.126-.008.252-.017.379-.026q.3-.023.6-.05c.07-.006.14-.01.21-.017.049,0,.1-.012.145-.017q.467-.048.931-.111l.149-.019c.354-.049.706-.107,1.055-.168l.1-.016c.093-.017.185-.037.278-.055.163-.031.325-.062.487-.1.133-.027.265-.057.4-.086.159-.036.317-.072.474-.11.131-.032.262-.065.392-.1q.233-.06.464-.124c.13-.036.258-.073.387-.111q.228-.067.453-.138c.066-.02.133-.039.2-.061.047-.015.093-.033.14-.049q.409-.135.809-.284c.056-.021.114-.04.17-.062.315-.12.625-.247.93-.379.08-.035.157-.071.236-.106q.351-.157.692-.326c.085-.042.17-.084.254-.127.292-.149.58-.3.858-.465.077-.044.153-.089.228-.135s.136-.087.2-.13c.114-.071.228-.142.338-.214s.2-.134.3-.2.213-.147.315-.221.186-.139.277-.208.2-.152.292-.229.173-.143.257-.214.182-.156.269-.235c.036-.032.075-.064.111-.1.072-.066.14-.134.209-.2l.075-.072c.136-.134.265-.269.39-.405l.087-.1q.158-.177.3-.356l.064-.078.029-.036c.1-.126.193-.253.283-.381l.056-.079q.146-.211.276-.424l.041-.069c.032-.054.065-.107.1-.161s.046-.091.07-.136c.05-.093.1-.187.144-.28q.057-.117.11-.235.063-.141.119-.283c.017-.042.037-.084.053-.126s.024-.076.038-.114c.032-.09.062-.18.089-.27s.05-.164.072-.246.046-.182.067-.272c.011-.049.026-.1.036-.147.007-.033.01-.066.016-.1.017-.093.031-.187.044-.28s.023-.163.031-.245.015-.188.02-.282c0-.055.01-.109.012-.164s0-.109,0-.164L37.387.105C37.387.215,37.379.324,37.373.434Z" transform="translate(15.186 101.489)" fill="#eff3f8"/>
        <path id="Tracé_3776" data-name="Tracé 3776" d="M31.8,3.164c-7.309-4.219-19.12-4.219-26.382,0s-7.222,11.061.086,15.28,19.119,4.219,26.38,0S39.111,7.384,31.8,3.164Zm-2.994,13.5c-5.572,3.238-14.635,3.238-20.243,0S2.927,8.18,8.5,4.943s14.636-3.239,20.244,0S34.38,13.43,28.809,16.668Z" transform="translate(15.265 90.736)" fill="#fff"/>
        <g id="Groupe_9331" data-name="Groupe 9331" transform="translate(20.092 0)">
          <path id="Tracé_3777" data-name="Tracé 3777" d="M12.1,38.12s11.82-5.242,12.821-10.836-7.356,1-7.473-.494,7.877-5.833,5.737-11.72S18.921,14.984,17,14.9s2.512-6.971-5.152-12.966S-.621,5.063,4.479,13.537,3.794,15.509,1.067,15.9s-.1,9.421,6.456,11.245c2.11.914.895,1.957-1.866,2.059S-1.432,33,12.1,38.12Z" transform="translate(0 0)" fill="#87c259"/>
          <path id="Tracé_3778" data-name="Tracé 3778" d="M0,0S16.193,33.847,0,95.341" transform="translate(7.332 4.273)" fill="none" stroke="#73b239" stroke-miterlimit="10" stroke-width="3.263"/>
        </g>
        <g id="Groupe_9332" data-name="Groupe 9332" transform="translate(30.457 15.37)">
          <path id="Tracé_3779" data-name="Tracé 3779" d="M10.179,45.387S-1.644,32.345.194,24.83s8.608,5.295,9.574,3.5-6.589-11.6-.68-17.752,5.354,2.243,7.8,3.194S17.6,3.714,30.45.477,44.237,11.25,33.218,18.987s-.235,2.832,2.943,4.825S31.094,35.595,21.925,34.251c-3.13-.026-2.193,1.943,1.188,3.592S29.842,46.478,10.179,45.387Z" transform="translate(0 0)" fill="#487e19"/>
          <path id="Tracé_3780" data-name="Tracé 3780" d="M30.424,0S-4.507,23.139.489,79" transform="translate(2.934 7.977)" fill="none" stroke="#73b239" stroke-miterlimit="10" stroke-width="3.263"/>
        </g>
        <g id="Groupe_9333" data-name="Groupe 9333" transform="translate(1.169 23.346)">
          <path id="Tracé_3781" data-name="Tracé 3781" d="M25.075,48.345S38.592,37.069,37.814,29.372s-9.259,4.05-9.968,2.144,8.134-10.577,3.135-17.486-5.614,1.479-8.168,2.082S23.5,6.046,11.227,1.059-3.921,9.816,5.92,19.006s-.16,2.838-3.584,4.371S5.72,35.748,14.987,35.688c3.1.409,1.9,2.228-1.674,3.393S5.451,46.7,25.075,48.345Z" transform="translate(0 0)" fill="#77b549"/>
          <path id="Tracé_3782" data-name="Tracé 3782" d="M0,0S21.975,14.192,17.467,73.216" transform="translate(7.879 6.582)" fill="none" stroke="#73b239" stroke-miterlimit="10" stroke-width="3.263"/>
        </g>
        <g id="Groupe_9334" data-name="Groupe 9334" transform="translate(32.033 45.018)">
          <path id="Tracé_3783" data-name="Tracé 3783" d="M3.861,35.5S-2.85,19.231,1.423,12.782s6.308,7.9,7.823,6.539S6.973,6.173,14.615,2.386s4.279,3.923,6.259,5.646S24.954-1.194,38.136.108s9.327,14.8-3.661,18.354S33.3,21.047,35.611,24s-8.756,9.372-16.929,5c-2.937-1.084-2.721,1.086-.1,3.782S21.993,43.187,3.861,35.5Z" transform="translate(2.657 0)" fill="#87c259"/>
          <path id="Tracé_3784" data-name="Tracé 3784" d="M40.333,0S-5.551,17.1.561,54.039" transform="translate(0 5.653)" fill="none" stroke="#73b239" stroke-miterlimit="10" stroke-width="3.263"/>
        </g>
        <path id="Tracé_3785" data-name="Tracé 3785" d="M4.608,1.919s16.259-4.51,21.9.3-8.24,5.092-7.124,6.69,12.773-.647,15.5,7.061-4.227,3.619-6.094,5.3,8.309,4.946,5.551,17.34-15.162,7.169-17.043-5.6-2.325-1.421-5.4.443-7.909-9.413-2.81-16.686c1.369-2.67-.72-2.715-3.587-.529S-4.792,18.288,4.608,1.919Z" transform="translate(24.026 75.346)" fill="#487e19"/>
        <path id="Tracé_3786" data-name="Tracé 3786" d="M31.618,35.187S22.908,2.137,8.053.106s-4.608,25.8-4.608,25.8" transform="translate(20.581 77.159)" fill="none" stroke="#73b239" stroke-miterlimit="10" stroke-width="3.263"/>
        <path id="Tracé_3787" data-name="Tracé 3787" d="M26.669,3.148S14.842-2.08,10.028.939,15.71,5.716,14.685,6.8,5.072,4.892,2.151,10.434s2.8,3.214,4.031,4.7S-.668,17.96.045,27.664s10.7,7.122,13.545-2.35,1.92-.818,4.045.936,7.043-6.257,3.986-12.339c-.742-2.176.848-1.978,2.779,0S31.975,16.6,26.669,3.148Z" transform="translate(0 71.691)" fill="#87c259"/>
        <path id="Tracé_3788" data-name="Tracé 3788" d="M0,23.344S8.5,5.7,20.441,0" transform="translate(6.228 74.839)" fill="none" stroke="#73b239" stroke-miterlimit="10" stroke-width="3.263"/>
      </g>
      <g id="Groupe_9341" data-name="Groupe 9341" transform="translate(242.554 201.252)">
        <g id="Groupe_9340" data-name="Groupe 9340" transform="translate(26.997 6.127)">
          <g id="Groupe_9339" data-name="Groupe 9339" transform="translate(0 0)">
            <g id="Groupe_9336" data-name="Groupe 9336" transform="translate(0 32.899)">
              <path id="Tracé_3789" data-name="Tracé 3789" d="M8.844,2.561h0A2.22,2.22,0,0,0,7.539.75a6.893,6.893,0,0,0-6.254,0A2.188,2.188,0,0,0,0,2.561H0L2.433,65.607h0a1,1,0,0,0,.587.815,3.1,3.1,0,0,0,2.813,0,.984.984,0,0,0,.578-.815Z" transform="translate(0 0)" fill="#fff"/>
            </g>
            <g id="Groupe_9337" data-name="Groupe 9337" transform="translate(42.662 32.899)">
              <path id="Tracé_3790" data-name="Tracé 3790" d="M8.844,2.561h0A2.219,2.219,0,0,0,7.539.75a6.893,6.893,0,0,0-6.254,0A2.188,2.188,0,0,0,0,2.561H0L2.433,65.607h0a1,1,0,0,0,.587.815,3.1,3.1,0,0,0,2.813,0,.986.986,0,0,0,.578-.815Z" transform="translate(0 0)" fill="#fff"/>
            </g>
            <g id="Groupe_9338" data-name="Groupe 9338" transform="translate(21.332)">
              <path id="Tracé_3791" data-name="Tracé 3791" d="M8.844,2.561h0A2.221,2.221,0,0,0,7.539.75a6.9,6.9,0,0,0-6.254,0A2.189,2.189,0,0,0,0,2.561H0L2.433,65.607h0a1,1,0,0,0,.587.815,3.1,3.1,0,0,0,2.813,0,.984.984,0,0,0,.578-.814Z" transform="translate(0 0)" fill="#fff"/>
            </g>
          </g>
        </g>
        <path id="Tracé_3792" data-name="Tracé 3792" d="M52.75,29.382C24.24,29.382,1.016,16.323.036,0,.015.357,0,.714,0,1.074c0,16.82,23.617,30.455,52.75,30.455S105.5,17.894,105.5,1.074c0-.36-.015-.717-.036-1.074C104.484,16.323,81.26,29.382,52.75,29.382Z" transform="translate(0 29.382)" fill="#dbefff" opacity="0.5"/>
        <ellipse id="Ellipse_52" data-name="Ellipse 52" cx="52.714" cy="29.382" rx="52.714" ry="29.382" transform="translate(0.036 0)" opacity="0.5" fill="url(#linear-gradient-2)"/>
      </g>
      <g id="Groupe_9342" data-name="Groupe 9342" transform="translate(264.389 191.168)">
        <path id="Tracé_3793" data-name="Tracé 3793" d="M5.383,0C2.41,0,0,1.418,0,3.168V10.4c0-1.75,2.41-3.168,5.383-3.168s5.383,1.418,5.383,3.168V3.168C10.766,1.418,8.356,0,5.383,0Z" transform="translate(0.023 0)" fill="#7579c0"/>
        <ellipse id="Ellipse_53" data-name="Ellipse 53" cx="5.394" cy="3.168" rx="5.394" ry="3.168" transform="translate(0 26.131)" fill="#7579c0"/>
        <ellipse id="Ellipse_54" data-name="Ellipse 54" cx="5.383" cy="3.168" rx="5.383" ry="3.168" transform="translate(0.023 0)" fill="#7375a8"/>
        <path id="Tracé_3794" data-name="Tracé 3794" d="M0,0V7.467H0c0,.246.34.446.759.446s.759-.2.759-.446V0A6.282,6.282,0,0,1,.759.051,6.285,6.285,0,0,1,0,0Z" transform="translate(4.635 21.352)" fill="#4b4e85"/>
        <path id="Tracé_3795" data-name="Tracé 3795" d="M5.405,0C2.433,0,.023,1.418.023,3.168V9.13C.01,9.259,0,9.388,0,9.52a4.049,4.049,0,0,0,.027.456c.006.052.017.1.024.153.015.1.03.195.051.29.014.061.032.121.049.182.023.082.045.165.073.245s.049.13.075.193.058.144.091.215.066.134.1.2.068.125.1.187.085.138.13.206.073.105.11.157c.053.072.106.142.164.211.035.042.071.083.107.123.066.075.133.148.2.219.028.028.058.055.087.083.083.079.168.158.257.232l.035.027a5.765,5.765,0,0,0,2.945,1.226h0a6.222,6.222,0,0,0,.759.052,6.228,6.228,0,0,0,.759-.052h0A5.764,5.764,0,0,0,9.1,12.9l.035-.027c.089-.074.174-.152.257-.232.029-.028.059-.055.087-.083.071-.071.138-.144.2-.219.036-.041.072-.082.107-.123.057-.069.111-.14.164-.211q.057-.077.11-.157.068-.1.13-.206c.037-.061.071-.124.1-.187s.069-.132.1-.2.062-.142.091-.215.052-.128.075-.193.05-.163.073-.245c.016-.061.035-.12.049-.182.022-.1.036-.192.052-.29.007-.051.018-.1.024-.153a4.115,4.115,0,0,0,.027-.456V3.168C10.788,1.418,8.378,0,5.405,0Z" transform="translate(0 7.228)" fill="#ffbf51"/>
        <ellipse id="Ellipse_55" data-name="Ellipse 55" cx="5.383" cy="3.168" rx="5.383" ry="3.168" transform="translate(0.023 7.228)" fill="#ffbf51"/>
        <ellipse id="Ellipse_56" data-name="Ellipse 56" cx="4.735" cy="2.787" rx="4.735" ry="2.787" transform="translate(0.67 0.381)" fill="#7579c0"/>
        <path id="Tracé_3796" data-name="Tracé 3796" d="M5.088,0C2.29,0,.022,1.335.022,2.982V8.593C.01,8.715,0,8.837,0,8.961a3.876,3.876,0,0,0,.025.43c.006.048.016.1.023.144.014.091.028.183.049.273.013.058.031.114.046.171.021.078.042.155.069.231s.046.122.07.182.055.135.085.2.062.126.1.188.063.118.1.176.08.13.122.193.068.1.1.147c.049.068.1.134.154.2.033.039.067.078.1.116.063.07.125.14.192.207.027.027.055.052.082.078.078.075.158.149.242.218l.033.026a5.427,5.427,0,0,0,2.772,1.154h0a5.867,5.867,0,0,0,.715.049,5.867,5.867,0,0,0,.715-.049h0A5.429,5.429,0,0,0,8.564,12.14l.032-.026c.084-.069.164-.143.242-.218.027-.026.056-.051.082-.078.067-.067.129-.136.191-.207.034-.038.068-.077.1-.116.054-.065.1-.131.154-.2q.054-.073.1-.147.064-.1.123-.193c.034-.058.066-.117.1-.176s.065-.125.095-.188.059-.134.086-.2.049-.121.071-.182.047-.153.069-.231c.016-.057.033-.113.046-.171.02-.09.035-.181.048-.273.007-.048.018-.1.023-.144a3.778,3.778,0,0,0,.025-.43V2.982C10.155,1.335,7.886,0,5.088,0Z" transform="translate(0.317 7.645)" fill="#fdd786"/>
        <ellipse id="Ellipse_57" data-name="Ellipse 57" cx="5.067" cy="2.982" rx="5.067" ry="2.982" transform="translate(0.338 7.645)" fill="#ffbf51"/>
      </g>
      <g id="Groupe_9347" data-name="Groupe 9347" transform="translate(195.182 114.979)">
        <g id="Groupe_9343" data-name="Groupe 9343" transform="translate(1.253 1.326)">
          <path id="Tracé_3797" data-name="Tracé 3797" d="M12.075,0,7.165,13.23H0L4.91,0Z" transform="translate(0 0)" fill="url(#linear-gradient-3)"/>
        </g>
        <g id="Groupe_9344" data-name="Groupe 9344" transform="translate(0 16.178)">
          <path id="Tracé_3798" data-name="Tracé 3798" d="M8.467,0l.569.511H.569L0,0Z" transform="translate(0 0)" fill="#5c5e65"/>
        </g>
        <g id="Groupe_9345" data-name="Groupe 9345" transform="translate(8.467 0)">
          <path id="Tracé_3799" data-name="Tracé 3799" d="M6,0l.569.511-6,16.178L0,16.178Z" transform="translate(0)" fill="#a8adb8"/>
        </g>
        <g id="Groupe_9346" data-name="Groupe 9346" transform="translate(0 0)">
          <path id="Tracé_3800" data-name="Tracé 3800" d="M6,0H14.47l-6,16.178H0ZM8.418,14.556l4.91-13.23H6.163l-4.91,13.23H8.418" transform="translate(0 0)" fill="#81848d"/>
        </g>
      </g>
      <path id="Tracé_3801" data-name="Tracé 3801" d="M8.141,0A19.508,19.508,0,0,0,3.57,2.638C-2.787,7.768,1.284,25,1.284,25a16.039,16.039,0,0,0,14.33-2.732L14.833,17.1A46.808,46.808,0,0,0,8.141,0Z" transform="translate(82.274 124.688)" fill="#fff"/>
      <g id="Groupe_9348" data-name="Groupe 9348" transform="translate(249.298 0)">
        <ellipse id="Ellipse_58" data-name="Ellipse 58" cx="27.592" cy="49.108" rx="27.592" ry="49.108" transform="translate(0 26.355)" fill="url(#radial-gradient)"/>
        <ellipse id="Ellipse_59" data-name="Ellipse 59" cx="8.612" cy="15.328" rx="8.612" ry="15.328" transform="translate(18.98 50.961)" fill="#ff0"/>
        <ellipse id="Ellipse_60" data-name="Ellipse 60" cx="31.502" cy="31.42" rx="31.502" ry="31.42" transform="translate(23.682 30.429)" fill="url(#radial-gradient-2)"/>
        <ellipse id="Ellipse_61" data-name="Ellipse 61" cx="7.27" cy="7.251" rx="7.27" ry="7.251" transform="translate(47.914 50.258)" fill="#ff0"/>
        <ellipse id="Ellipse_62" data-name="Ellipse 62" cx="23.23" cy="23.17" rx="23.23" ry="23.17" transform="translate(16.806 18.362)" fill="url(#radial-gradient-3)"/>
        <ellipse id="Ellipse_63" data-name="Ellipse 63" cx="5.473" cy="5.458" rx="5.473" ry="5.458" transform="translate(34.563 32.806)" fill="#ff0"/>
        <path id="Tracé_3802" data-name="Tracé 3802" d="M3.747,0A3.747,3.747,0,0,0,0,3.748V5.331C0,6.526,1.678,7.495,3.747,7.495s3.747-.969,3.747-2.163V3.748A3.747,3.747,0,0,0,3.747,0Z" transform="translate(23.844 46.773)" fill="#7579c0"/>
        <path id="Tracé_3803" data-name="Tracé 3803" d="M2.944,0A2.944,2.944,0,0,0,0,2.944V4.188c0,.939,1.318,1.7,2.944,1.7s2.944-.761,2.944-1.7V2.944A2.944,2.944,0,0,0,2.944,0Z" transform="translate(52.24 46.297)" fill="#7579c0"/>
        <path id="Tracé_3804" data-name="Tracé 3804" d="M2.614,0A2.614,2.614,0,0,0,0,2.614v1.1c0,.834,1.17,1.509,2.614,1.509s2.614-.676,2.614-1.509v-1.1A2.614,2.614,0,0,0,2.614,0Z" transform="translate(37.422 29.462)" fill="#7579c0"/>
        <rect id="Rectangle_472" data-name="Rectangle 472" width="1.162" height="49.241" transform="translate(27.011)" fill="#7579c0"/>
        <rect id="Rectangle_473" data-name="Rectangle 473" width="1.162" height="32.076" transform="translate(39.455 0)" fill="#7579c0"/>
        <rect id="Rectangle_474" data-name="Rectangle 474" width="1.162" height="48.757" transform="translate(54.603 0)" fill="#7579c0"/>
      </g>
    </g>
  </g>
</svg>
