<svg xmlns="http://www.w3.org/2000/svg" xmlns:xlink="http://www.w3.org/1999/xlink" width="375.348" height="400.376" viewBox="0 0 375.348 400.376">
  <defs>
    <linearGradient id="linear-gradient" x1="0.307" y1="0.659" x2="0.703" y2="0.167" gradientUnits="objectBoundingBox">
      <stop offset="0"/>
      <stop offset="1" stop-opacity="0"/>
    </linearGradient>
  </defs>
  <g id="Groupe_12145" data-name="Groupe 12145" transform="translate(-23.487 -96.095)">
    <g id="Delivery_vector" data-name="Delivery vector" transform="translate(-429.131 -6.984)">
      <g id="Groupe_8143" data-name="Groupe 8143" transform="translate(517.267 103.079)">
        <g id="Groupe_8140" data-name="Groupe 8140" opacity="0.4">
          <path id="Tracé_10160" data-name="Tracé 10160" d="M660.313,130.842H552.07a9.658,9.658,0,0,1,15.214-7.9,20.89,20.89,0,0,1,40.927-4.792,14.569,14.569,0,0,1,10.042-3.994c6.205,0,11.51,5.611,13.636,11.069a23.608,23.608,0,0,1,10.316-2.289C650.54,122.932,657.632,125.209,660.313,130.842Z" transform="translate(-499.422 -103.079)" fill="#fc6011" opacity="0.45"/>
          <g id="Groupe_8137" data-name="Groupe 8137" transform="translate(174.456 62.261)" opacity="0.45">
            <g id="Groupe_8136" data-name="Groupe 8136">
              <path id="Tracé_10161" data-name="Tracé 10161" d="M699.073,163.382a7.553,7.553,0,0,0-7.924-4.056c-.572-1.5-3.779-8.205-13.758-2.581-.791-2-5.305-11.8-15.312-4.919a10.407,10.407,0,0,0-1.915-4.774c-1.844-2.386-4.661-3.263-8.371-2.6-3.358.6-5.606,2.351-6.68,5.217a13.962,13.962,0,0,0-.405,7.189c-2.051.083-11.084.782-12.026,6.671l-.089.557h66.791Z" transform="translate(-632.591 -144.237)" fill="#fc6011"/>
            </g>
          </g>
          <g id="Groupe_8139" data-name="Groupe 8139" transform="translate(0 103.769)" opacity="0.45">
            <g id="Groupe_8138" data-name="Groupe 8138">
              <path id="Tracé_10162" data-name="Tracé 10162" d="M576.833,190.82a6.736,6.736,0,0,0-7.1-4.056c-.511-1.5-3.384-8.205-12.326-2.581-.71-2-4.753-11.8-13.719-4.919a11.16,11.16,0,0,0-1.715-4.774c-1.652-2.386-4.175-3.261-7.5-2.6a7.445,7.445,0,0,0-5.984,5.217,15.514,15.514,0,0,0-.363,7.189c-1.838.083-9.931.782-10.775,6.671l-.08.557H577.11Z" transform="translate(-517.267 -171.675)" fill="#fc6011"/>
            </g>
          </g>
        </g>
        <g id="Groupe_8141" data-name="Groupe 8141" transform="translate(10.06 46.193)">
          <path id="Tracé_10163" data-name="Tracé 10163" d="M537.326,230.4a13.409,13.409,0,1,1,13.407-13.409A13.424,13.424,0,0,1,537.326,230.4Zm0-22.762a9.353,9.353,0,1,0,9.353,9.353A9.365,9.365,0,0,0,537.326,207.636Z" transform="translate(-523.917 -97.741)" fill="#fc6011"/>
          <path id="Tracé_10164" data-name="Tracé 10164" d="M652.564,294.012a17.079,17.079,0,1,1,17.079-17.079A17.1,17.1,0,0,1,652.564,294.012Zm0-31.494a14.414,14.414,0,1,0,14.414,14.414A14.431,14.431,0,0,0,652.564,262.518Z" transform="translate(-437.711 -68.887)" fill="#fc6011"/>
          <path id="Tracé_10165" data-name="Tracé 10165" d="M602.329,185.6a25.992,25.992,0,1,1,25.992-25.992A26.022,26.022,0,0,1,602.329,185.6Zm0-47.928a21.936,21.936,0,1,0,21.938,21.936A21.961,21.961,0,0,0,602.329,137.671Z" transform="translate(-497.039 -133.615)" fill="#fc6011"/>
        </g>
        <g id="Groupe_8142" data-name="Groupe 8142" transform="translate(21.086 23.75)">
          <path id="Tracé_10166" data-name="Tracé 10166" d="M572.736,304.143s.145-11.736,11.736-11.736c0,0-11.736-.145-11.736-11.736,0,0-.145,11.736-11.736,11.736C561,292.407,572.736,292.552,572.736,304.143Z" transform="translate(-515.929 -35.77)" fill="#f9ca24"/>
          <path id="Tracé_10167" data-name="Tracé 10167" d="M542.942,159.091s.144-11.734,11.734-11.734c0,0-11.734-.145-11.734-11.736,0,0-.145,11.736-11.736,11.736C531.206,147.357,542.942,147.5,542.942,159.091Z" transform="translate(-531.206 -110.143)" fill="#f9ca24"/>
          <path id="Tracé_10168" data-name="Tracé 10168" d="M552.172,309.97s.085-6.892,6.892-6.892c0,0-6.892-.085-6.892-6.891,0,0-.085,6.891-6.891,6.891C545.282,303.078,552.172,303.164,552.172,309.97Z" transform="translate(-523.989 -27.814)" fill="#f9ca24"/>
          <path id="Tracé_10169" data-name="Tracé 10169" d="M665.181,242.449s.085-6.891,6.891-6.891c0,0-6.891-.085-6.891-6.892,0,0-.085,6.892-6.892,6.892C658.289,235.558,665.181,235.643,665.181,242.449Z" transform="translate(-466.045 -62.435)" fill="#f9ca24"/>
          <path id="Tracé_10170" data-name="Tracé 10170" d="M642.445,132.562s.085-6.892,6.892-6.892c0,0-6.892-.085-6.892-6.891,0,0-.085,6.891-6.891,6.891C635.554,125.67,642.445,125.756,642.445,132.562Z" transform="translate(-477.702 -118.779)" fill="#f9ca24"/>
          <path id="Tracé_10171" data-name="Tracé 10171" d="M556.729,172.557s.085-6.891,6.891-6.891c0,0-6.891-.086-6.891-6.892,0,0-.086,6.892-6.892,6.892C549.837,165.666,556.729,165.751,556.729,172.557Z" transform="translate(-521.653 -98.272)" fill="#f9ca24"/>
        </g>
      </g>
    </g>
    <g id="Groupe_12144" data-name="Groupe 12144">
      <g id="Circle_Landing" data-name="Circle Landing" transform="translate(-865.056 -1878.97)" opacity="0.4">
        <g id="Groupe_11461" data-name="Groupe 11461" transform="translate(888.543 2159.457)">
          <path id="Tracé_13259" data-name="Tracé 13259" d="M1792.29,2634.181c-19.293-11.139-50.477-11.139-69.645,0-.091.053-.178.1-.266.158-12.341,7.278-16.543,17.453-12.636,26.722,2.077,4.934,6.454,9.614,13.123,13.465,19.3,11.14,50.487,11.14,69.658,0s19.063-29.2-.234-40.344Z" transform="translate(-1569.907 -2547.078)" fill="#2b2d2e"/>
          <path id="Tracé_13260" data-name="Tracé 13260" d="M1744.969,2592.693c-24.252-14-63.578-14-87.672,0-.647.376-1.278.757-1.887,1.143l1.231.49c.55-.349,1.118-.69,1.7-1.029,23.516-13.666,61.915-13.667,85.585,0s23.8,35.911.285,49.577-61.921,13.67-85.6,0c-8.684-5.014-14.2-11.182-16.541-17.659l-1.489.053c2.372,6.682,8.04,13.045,16.989,18.211,24.255,14,63.587,14,87.684,0s23.963-36.783-.292-50.786Z" transform="translate(-1513.602 -2510.811)" fill="#2b2d2e"/>
          <path id="Tracé_13261" data-name="Tracé 13261" d="M1692.263,2552.21c-29.106-16.8-76.324-16.8-105.241,0q-1.781,1.034-3.417,2.124l3.279,1.3q1.41-.923,2.933-1.81c27.387-15.915,72.1-15.915,99.669,0s27.718,41.82.331,57.736-72.11,15.919-99.682,0c-10.474-6.047-16.984-13.533-19.536-21.369l-3.96.145c2.633,8.371,9.538,16.382,20.719,22.837,29.113,16.809,76.33,16.808,105.254,0s28.763-44.155-.35-60.963Z" transform="translate(-1452.14 -2475.417)" fill="#2b2d2e"/>
          <path id="Tracé_13262" data-name="Tracé 13262" d="M1579.15,2469.355c-39.052-22.547-102.391-22.546-141.189,0s-38.6,59.239.454,81.786c16.435,9.489,37.17,14.985,58.565,16.485l-.206-4.9c-19.176-1.492-37.7-6.5-52.458-15.015-35.775-20.655-35.965-54.268-.415-74.927s93.573-20.655,129.349,0c23.18,13.383,31.425,32.2,24.7,49.409l7.932,1.659c7.754-18.938-1.173-39.743-26.727-54.5Z" transform="translate(-1321.111 -2402.973)" fill="#2b2d2e"/>
          <path id="Tracé_13263" data-name="Tracé 13263" d="M1377.211,2523.135c-42.62-24.607-42.849-64.645-.505-89.252s111.468-24.608,154.089,0,42.843,64.645.5,89.252-111.462,24.608-154.082,0Zm154.97-90.059c-21.019-12.136-48.912-18.82-78.542-18.819s-57.447,6.684-78.33,18.82-32.331,28.271-32.232,45.431,11.724,33.3,32.743,45.435,48.916,18.818,78.545,18.818,57.444-6.682,78.327-18.818,32.328-28.272,32.235-45.433-11.727-33.3-32.746-45.433Z" transform="translate(-1266.328 -2371.233)" fill="#2b2d2e"/>
          <path id="Tracé_13264" data-name="Tracé 13264" d="M1403.6,2338.629l-3.394.585c15.107,24.627,10.045,52.488-15.23,74.862l2.837,1.171c15.967-14.051,24.49-30.518,24.39-47.755a55.5,55.5,0,0,0-8.6-28.862Zm-40.951-35.444c-27.7-14.541-63.218-22.5-100.8-22.5-40.028,0-77.614,9.028-105.825,25.423s-43.681,38.2-43.547,61.383,15.839,44.987,44.235,61.381,66.087,25.427,106.115,25.424a240.853,240.853,0,0,0,67.784-9.355l-1.727-1.775c-54.837,16.077-123.762,10.84-169.741-15.705-57.273-33.067-57.576-86.87-.672-119.939,55.173-32.063,144.178-33.038,201.741-2.924l2.433-1.414Z" transform="translate(-1074.666 -2260.217)" fill="#2b2d2e"/>
          <path id="Tracé_13265" data-name="Tracé 13265" d="M1274.643,2233.96c-16.467-9.507-35.657-16.87-57.019-21.882a290.759,290.759,0,0,0-129.436,0c-21.305,5.012-40.413,12.376-56.772,21.882s-29.009,20.6-37.6,32.958c-8.292,11.936-12.458,24.549-12.382,37.488s4.378,25.554,12.8,37.487q.82,1.162,1.687,2.309l3.325-.635c-27.135-35.745-15.642-78.992,34.608-108.194,65.5-38.063,172.425-38.063,238.35,0s66.278,100,.781,138.064c-40.757,23.685-97.555,32.637-150.534,26.842l-.841,1.99a294.32,294.32,0,0,0,32.369,1.759,282.944,282.944,0,0,0,64.68-7.293c21.308-5.014,40.407-12.375,56.772-21.886s29.012-20.6,37.6-32.954c8.288-11.938,12.451-24.549,12.379-37.489s-4.378-25.551-12.8-37.487c-8.72-12.355-21.494-23.447-37.967-32.957Z" transform="translate(-965.752 -2197.13)" fill="#2b2d2e"/>
          <path id="Tracé_13266" data-name="Tracé 13266" d="M1208.487,2189.864c-17.969-10.375-38.9-18.411-62.217-23.877a299.019,299.019,0,0,0-40.156-6.53l.248.653c37.124,3.56,72.777,13.613,101.431,30.156,73.029,42.163,73.415,110.769.867,152.93s-191,42.164-264.025,0-73.409-110.765-.854-152.929a200.057,200.057,0,0,1,27.943-13.351l-.232-.622a202.146,202.146,0,0,0-28.409,13.57c-17.859,10.378-31.665,22.478-41.026,35.964-9.047,13.023-13.589,26.787-13.513,40.906s4.783,27.88,13.973,40.906c9.516,13.484,23.455,25.585,41.424,35.96s38.909,18.411,62.223,23.881a317.219,317.219,0,0,0,141.239,0c23.249-5.468,44.1-13.5,61.954-23.881s31.656-22.476,41.02-35.961c9.043-13.025,13.592-26.789,13.512-40.906s-4.779-27.882-13.973-40.905c-9.516-13.488-23.455-25.585-41.431-35.964Z" transform="translate(-888.543 -2159.457)" fill="#2b2d2e"/>
        </g>
      </g>
      <g id="Groupe_9363" data-name="Groupe 9363">
        <g id="Groupe_8151" data-name="Groupe 8151" transform="translate(96.919 171.133)">
          <path id="Tracé_10172" data-name="Tracé 10172" d="M589.858,256.015V245.41h-9.513v11.7l8.548.836Z" transform="translate(-493.707 -105.138)" fill="#ffabab"/>
          <g id="Groupe_8144" data-name="Groupe 8144" transform="translate(66.7 148.649)">
            <path id="Tracé_10173" data-name="Tracé 10173" d="M599.282,268.484H567.165v-1.635a7.326,7.326,0,0,1,.094-1.153,7.224,7.224,0,0,1,5.234-5.851c5.275-1.47,12.556-4.319,12.464-8.792l.032-.011a4.2,4.2,0,0,1,4.833,2.664l7.414-1.378a51.941,51.941,0,0,1,2.047,13.368C599.314,266.859,599.3,267.815,599.282,268.484Z" transform="translate(-567.165 -250.947)" fill="#fdc349"/>
            <path id="Tracé_10174" data-name="Tracé 10174" d="M599.282,263.485H567.165V261.85a7.326,7.326,0,0,1,.094-1.153h32.023C599.314,261.86,599.3,262.816,599.282,263.485Z" transform="translate(-567.165 -245.948)" fill="#dba941"/>
          </g>
          <path id="Tracé_10175" data-name="Tracé 10175" d="M653.074,212.865v5.574a10.478,10.478,0,0,1-10.479,10.479h-49.21v40.3H576.86V225.528a12.662,12.662,0,0,1,12.662-12.663Z" transform="translate(-495.494 -121.825)" fill="#29293d"/>
          <g id="Groupe_8146" data-name="Groupe 8146" transform="translate(114.598 5.218)">
            <path id="Tracé_10176" data-name="Tracé 10176" d="M620.933,180.218a3.8,3.8,0,0,0-.112,1.9l1.383,6.954-10.166,2.039-1.313-7.987c-.823.2-1.675.377-2.555.585-.838.2-1.675.378-2.485.531a2.679,2.679,0,0,1-2.221-.558c-.014,0-.014,0-.027-.014-.168-.2-.336-.392-.517-.6-.014-.014-.027-.029-.027-.042-4.789-5.739-4.455-8.462-3.435-10.641.67-1.423,1.508-2.541,1.508-4.175-.809-5.921,3.407-10.262,8.783-11.632a14.963,14.963,0,0,1,4.2-.433,12.44,12.44,0,0,1,4.119.879h.014a12.688,12.688,0,0,1,2.974,1.663,12.82,12.82,0,0,1,.867,20A3.482,3.482,0,0,0,620.933,180.218Z" transform="translate(-598.828 -156.133)" fill="#ffa9a9"/>
            <path id="Tracé_10177" data-name="Tracé 10177" d="M622.595,168.5a12.824,12.824,0,0,1-4.37,10.179,3.483,3.483,0,0,0-.992,1.537l-4.776-4.372s1.815-2.094-.5-5.068c-1.6-2.056-3.071-.5-3.826.652a.4.4,0,0,1-.734-.175,12.283,12.283,0,0,1,1.124-7.71l-2.472-6.968a14.963,14.963,0,0,1,4.2-.433,12.44,12.44,0,0,1,4.119.879h.014l2.974,1.663A12.911,12.911,0,0,1,622.595,168.5Z" transform="translate(-595.127 -156.133)"/>
            <path id="Tracé_10178" data-name="Tracé 10178" d="M601.619,165.3c0,.359-.117.649-.262.649s-.262-.29-.262-.649.118-.647.262-.647S601.619,164.944,601.619,165.3Z" transform="translate(-597.666 -151.763)"/>
            <path id="Tracé_10179" data-name="Tracé 10179" d="M600.7,163.818s-.218-1.484,2.487-.219" transform="translate(-597.871 -152.566)" fill="none" stroke="#000" stroke-linecap="round" stroke-miterlimit="10" stroke-width="0.25"/>
            <path id="Tracé_10180" data-name="Tracé 10180" d="M604.794,168.966l6.673-3.755,1.376,7.119-8.049,5.149" transform="translate(-595.769 -151.478)" fill="none" stroke="#fff" stroke-linecap="round" stroke-miterlimit="10" stroke-width="0.25"/>
            <g id="Groupe_8145" data-name="Groupe 8145" transform="translate(14.174 12.121)">
              <path id="Tracé_10181" data-name="Tracé 10181" d="M608.2,167.116s2.631-5.019,5.118-2.009.175,10.173-4.363,7.594" transform="translate(-608.198 -164.145)" fill="#ffabab" stroke="#000" stroke-linecap="round" stroke-miterlimit="10" stroke-width="0.25"/>
              <path id="Tracé_10182" data-name="Tracé 10182" d="M609.209,169.542s-.219-4.712,2.749-3.8" transform="translate(-607.681 -163.386)" fill="none" stroke="#000" stroke-linecap="round" stroke-miterlimit="10" stroke-width="0.25"/>
              <path id="Tracé_10183" data-name="Tracé 10183" d="M610.535,168.693s.5-1.932-.912-2.516" transform="translate(-607.467 -163.104)" fill="none" stroke="#000" stroke-linecap="round" stroke-miterlimit="10" stroke-width="0.25"/>
            </g>
            <path id="Tracé_10184" data-name="Tracé 10184" d="M608.171,178.2c-.838.2-1.676.378-2.485.531a2.679,2.679,0,0,1-2.221-.558c-.014,0-.014,0-.027-.014-.168-.2-.336-.392-.517-.6-.014-.014-.027-.029-.027-.042-4.791-5.739-4.455-8.462-3.435-10.641,1.466.182,6.143.74,7.918.7C610.21,167.518,610.921,172.083,608.171,178.2Z" transform="translate(-598.828 -150.624)" fill="#f9ca24"/>
          </g>
          <path id="Tracé_10185" data-name="Tracé 10185" d="M624.425,179.515c-4.835-.572-10.512,1.065-15.251,4.786h-.015c-.605.43-1.194.874-1.814,1.352-.97-2.068-3.212-7.316-3.212-7.316l16.4-4.882S622.342,176.27,624.425,179.515Z" transform="translate(-481.51 -142.032)" fill="#cc4e0e"/>
          <g id="Groupe_8147" data-name="Groupe 8147" transform="translate(2.789 150.553)">
            <circle id="Ellipse_107" data-name="Ellipse 107" cx="23.318" cy="23.318" r="23.318"/>
            <path id="Tracé_10207" data-name="Tracé 10207" d="M13.325,0A13.325,13.325,0,1,1,0,13.325,13.325,13.325,0,0,1,13.325,0Z" transform="translate(9.993 9.993)" fill="#3d3d3d"/>
            <path id="Tracé_10186" data-name="Tracé 10186" d="M546.278,269.125a4.441,4.441,0,1,1-4.441-4.441A4.442,4.442,0,0,1,546.278,269.125Z" transform="translate(-518.519 -245.808)" fill="#fff"/>
          </g>
          <path id="Tracé_10187" data-name="Tracé 10187" d="M556.47,267.724h-33.4s9.807-26.293,42.275-26.293Z" transform="translate(-523.073 -107.178)" fill="#29293d"/>
          <path id="Tracé_10188" data-name="Tracé 10188" d="M622.08,177.2a3.7,3.7,0,0,1-2.817,1.309h-9.037a4.659,4.659,0,0,1-4.659-4.659V160.662h14.755Z" transform="translate(-480.775 -148.592)" fill="#ba7f17"/>
          <path id="Tracé_10189" data-name="Tracé 10189" d="M596.775,161.091s-3.4,9.138,3.535,19.608l14.556-5.765-2.519-15.108Z" transform="translate(-485.71 -149.02)" opacity="0.2" fill="url(#linear-gradient)"/>
          <path id="Tracé_10190" data-name="Tracé 10190" d="M627.461,158.981a16.535,16.535,0,0,0-25.969,0,17.2,17.2,0,0,0-3.118,5.773h11.769v13.184A4.659,4.659,0,0,0,614.8,182.6h9.037a3.7,3.7,0,0,0,2.817-1.309c2.558-3.006,4.8-6.827,4.8-10.984A17.845,17.845,0,0,0,627.461,158.981Z" transform="translate(-484.463 -152.683)" fill="#e87658"/>
          <path id="Tracé_10191" data-name="Tracé 10191" d="M611.676,156.846v5.773h-15.49a.814.814,0,0,1-.318-1.558l6-2.641.1-1.573Z" transform="translate(-485.996 -150.548)" fill="#3c427f"/>
          <path id="Tracé_10192" data-name="Tracé 10192" d="M609.48,156.846v4.8a18.066,18.066,0,0,0-9.813-3.228l.1-1.573Z" transform="translate(-483.8 -150.548)" fill="#30336b"/>
          <path id="Tracé_10193" data-name="Tracé 10193" d="M605.592,158.241a.6.6,0,1,1-.6-.6A.6.6,0,0,1,605.592,158.241Z" transform="translate(-481.373 -150.139)" fill="#fff"/>
          <path id="Tracé_10194" data-name="Tracé 10194" d="M562.531,198.577v16.439a8.458,8.458,0,0,1-6.366-8.213v-.014A8.458,8.458,0,0,1,562.531,198.577Z" transform="translate(-506.105 -129.151)" fill="#f9ca24"/>
          <path id="Tracé_10195" data-name="Tracé 10195" d="M581.765,204.486c-1.874,3.054-4.016,6.736-6.275,10.908H562.5a3.766,3.766,0,0,1-.539-.026,7.346,7.346,0,0,1-1.591-.257V198.672a7.253,7.253,0,0,1,1.591-.257,4,4,0,0,1,.539-.024h15.823A4.014,4.014,0,0,1,581.765,204.486Z" transform="translate(-503.948 -129.247)" fill="#3e394f"/>
          <path id="Tracé_10196" data-name="Tracé 10196" d="M573.5,209.63c-.732,1.336-1.463,2.735-2.21,4.166h-7.045c.843-1.384,1.7-2.767,2.576-4.166Z" transform="translate(-501.961 -123.484)" fill="#29293d"/>
          <path id="Tracé_10197" data-name="Tracé 10197" d="M590.191,216.694c-7.346,10.719-24.856,40-21.738,71.563.174,1.812.43,3.626.747,5.438H547.7a6.4,6.4,0,0,1-6.092-8.4c4.372-13.22,14.764-40.708,34.412-72.907h11.895A2.759,2.759,0,0,1,590.191,216.694Z" transform="translate(-513.736 -122.072)" fill="#3e394f"/>
          <path id="Tracé_10208" data-name="Tracé 10208" d="M0,0H1.591V19.775H0Z" transform="translate(56.425 67.758)" fill="#3e394f"/>
          <path id="Tracé_10198" data-name="Tracé 10198" d="M653.929,244.975c-14.885-3.753-30.169-14.138-30.169-14.138l1.4-2.591c-3.118-1.7-1.272-5.455-1.4-12.612-.11-7.155-.874-13.421-.874-13.421l-.015.015c-14.218,8.222-46.1,15-46.1,15l-1.861-6.664a194.026,194.026,0,0,0,30.087-13.916c7.713-4.516,12.882-9.494,17.334-13.008.62-.478,1.209-.923,1.814-1.352h.015q.765-.6,1.575-1.145h.017a20.848,20.848,0,0,1,13.66-3.641c1.209,1.876,2.513,3.9,3.609,5.582.94,1.431,1.719,2.625,2.2,3.292a.052.052,0,0,1,.017.032C651.766,194.594,657.03,211.436,653.929,244.975Z" transform="translate(-496.495 -140.016)" fill="#ffff0a"/>
          <path id="Tracé_10199" data-name="Tracé 10199" d="M566.554,210.719a.645.645,0,0,1-.13-.014.6.6,0,0,1-.454-.713l4.283-19.3a.6.6,0,0,1,1.165.259l-4.283,19.3A.6.6,0,0,1,566.554,210.719Z" transform="translate(-501.085 -133.433)" fill="#3e394f"/>
          <path id="Tracé_10200" data-name="Tracé 10200" d="M571.226,209.5h0a2.1,2.1,0,0,1-2.278,2.411c-1.871-.2-4.152-1.316-4.679-5.41-.929-7.207,8.682-8.066,12.258-5.55l5.6-1.788,1.225,5.434-5.567,1.466s-3.013,5.36-5.647,3.437S571.226,209.5,571.226,209.5Z" transform="translate(-501.982 -128.852)" fill="#ffa9a9"/>
          <circle id="Ellipse_109" data-name="Ellipse 109" cx="3.725" cy="3.725" r="3.725" transform="translate(64.231 73.92)" fill="#3e394f"/>
          <path id="Tracé_10201" data-name="Tracé 10201" d="M622.886,200.941l-.015.015c-14.218,8.222-46.1,15-46.1,15l-1.861-6.664a194.025,194.025,0,0,0,30.087-13.916c7.713-4.516,12.882-9.494,17.334-13.008.62-.478,1.209-.923,1.814-1.352h.015q.765-.6,1.575-1.145h.017C634.162,185.753,632.6,195.628,622.886,200.941Z" transform="translate(-496.495 -138.744)" fill="#cc4e0e"/>
          <path id="Rectangle_17341" data-name="Rectangle 17341" d="M3.185,0h1.88a0,0,0,0,1,0,0V10.867a0,0,0,0,1,0,0H3.185A3.185,3.185,0,0,1,0,7.682v-4.5A3.185,3.185,0,0,1,3.185,0Z" transform="translate(67.217 50.497)" fill="#3e394f"/>
          <g id="Groupe_8148" data-name="Groupe 8148" transform="translate(140.403 150.553)">
            <circle id="Ellipse_110" data-name="Ellipse 110" cx="23.318" cy="23.318" r="23.318"/>
            <circle id="Ellipse_111" data-name="Ellipse 111" cx="13.325" cy="13.325" r="13.325" transform="translate(9.993 9.993)" fill="#3d3d3d"/>
            <circle id="Ellipse_112" data-name="Ellipse 112" cx="4.442" cy="4.442" r="4.442" transform="translate(18.876 18.876)" fill="#fff"/>
          </g>
          <path id="Tracé_10202" data-name="Tracé 10202" d="M713.969,284.6H559.991c-.318-1.812-.573-3.626-.747-5.438h52.023s6.786-49.03,22.98-49.03h36.916C709.331,230.129,713.969,284.6,713.969,284.6Z" transform="translate(-504.527 -112.973)" fill="#3e394f"/>
          <path id="Tracé_10203" data-name="Tracé 10203" d="M677.273,277.04H608.6a34.407,34.407,0,0,1,68.669,0Z" transform="translate(-479.218 -105.416)" fill="#29293d"/>
          <path id="Tracé_10204" data-name="Tracé 10204" d="M621.19,235.486h-13.37a3.129,3.129,0,0,1-3.13-3.13h0a8.1,8.1,0,0,1,8.1-8.1h12.672c13.816,0,7.951-4.573,17.593-4.573h7.8a3.728,3.728,0,0,1,3.727,3.727h0a12.076,12.076,0,0,1-12.076,12.076Z" transform="translate(-481.224 -118.33)" fill="#29293d"/>
          <path id="Tracé_10205" data-name="Tracé 10205" d="M640.521,239.455h-23.2a.962.962,0,0,1,0-1.924h21.277v-8.2a11.506,11.506,0,0,1,11.494-11.492h39.4a.962.962,0,1,1,0,1.924h-39.4a9.579,9.579,0,0,0-9.568,9.568Z" transform="translate(-475.243 -119.275)" fill="#29293d"/>
        </g>
        <g id="Groupe_9354" data-name="Groupe 9354" transform="translate(-1895.679 -370.868)">
          <path id="Tracé_10172-2" data-name="Tracé 10172" d="M589.371,255.472V245.41h-9.026v11.1l8.111.793Z" transform="translate(1555.962 425.872)" fill="#ffabab"/>
          <g id="Groupe_8144-2" data-name="Groupe 8144" transform="translate(2117.39 679.229)">
            <path id="Tracé_10173-2" data-name="Tracé 10173" d="M597.638,267.586H567.165v-1.552a6.944,6.944,0,0,1,.089-1.094,6.854,6.854,0,0,1,4.966-5.552c5-1.4,11.913-4.1,11.825-8.342l.03-.01a3.989,3.989,0,0,1,4.586,2.528l7.034-1.308a49.281,49.281,0,0,1,1.942,12.684C597.668,266.045,597.658,266.952,597.638,267.586Z" transform="translate(-567.165 -250.947)" fill="#3e394f"/>
            <path id="Tracé_10174-2" data-name="Tracé 10174" d="M597.638,263.342H567.165v-1.552a6.944,6.944,0,0,1,.089-1.094h30.384C597.668,261.8,597.658,262.708,597.638,263.342Z" transform="translate(-567.165 -246.704)" fill="#dba941"/>
          </g>
          <path id="Tracé_10175-2" data-name="Tracé 10175" d="M649.171,212.865v5.289a9.942,9.942,0,0,1-9.942,9.942h-46.69v38.239H576.86V224.88a12.014,12.014,0,0,1,12.013-12.015Z" transform="translate(1554.445 411.705)" fill="#29293d"/>
          <g id="Groupe_8146-2" data-name="Groupe 8146" transform="translate(2162.836 543.143)">
            <path id="Tracé_10176-2" data-name="Tracé 10176" d="M619.8,178.984a3.6,3.6,0,0,0-.106,1.8l1.312,6.6-9.645,1.935-1.246-7.578c-.781.185-1.589.357-2.424.555-.8.187-1.589.359-2.358.5a2.542,2.542,0,0,1-2.107-.53c-.013,0-.013,0-.026-.013-.159-.187-.319-.372-.491-.57-.013-.013-.026-.027-.026-.04-4.544-5.445-4.227-8.029-3.26-10.1.636-1.351,1.431-2.411,1.431-3.961-.768-5.618,3.232-9.737,8.333-11.036a14.2,14.2,0,0,1,3.989-.41,11.8,11.8,0,0,1,3.908.834h.013a12.037,12.037,0,0,1,2.822,1.577,12.163,12.163,0,0,1,.822,18.972A3.3,3.3,0,0,0,619.8,178.984Z" transform="translate(-598.828 -156.132)" fill="#ffa9a9"/>
            <path id="Tracé_10177-2" data-name="Tracé 10177" d="M621.748,167.868a12.167,12.167,0,0,1-4.147,9.658,3.3,3.3,0,0,0-.941,1.458l-4.531-4.148s1.722-1.986-.476-4.808c-1.52-1.951-2.914-.478-3.63.619a.381.381,0,0,1-.7-.167,11.654,11.654,0,0,1,1.066-7.316l-2.345-6.611a14.2,14.2,0,0,1,3.989-.41,11.8,11.8,0,0,1,3.908.834h.013l2.822,1.577A12.25,12.25,0,0,1,621.748,167.868Z" transform="translate(-595.686 -156.132)"/>
            <path id="Tracé_10178-2" data-name="Tracé 10178" d="M601.593,165.268c0,.34-.111.616-.248.616s-.248-.276-.248-.616.112-.614.248-.614S601.593,164.93,601.593,165.268Z" transform="translate(-597.841 -152.423)"/>
            <path id="Tracé_10179-2" data-name="Tracé 10179" d="M600.7,163.781s-.207-1.408,2.36-.208" transform="translate(-598.016 -153.105)" fill="none" stroke="#000" stroke-linecap="round" stroke-miterlimit="10" stroke-width="0.25"/>
            <path id="Tracé_10180-2" data-name="Tracé 10180" d="M604.794,168.774l6.331-3.563,1.306,6.754-7.637,4.886" transform="translate(-596.232 -152.181)" fill="none" stroke="#fff" stroke-linecap="round" stroke-miterlimit="10" stroke-width="0.25"/>
            <g id="Groupe_8145-2" data-name="Groupe 8145" transform="translate(13.448 11.501)">
              <path id="Tracé_10181-2" data-name="Tracé 10181" d="M608.2,166.964s2.5-4.762,4.856-1.906.167,9.652-4.139,7.205" transform="translate(-608.198 -164.145)" fill="#ffabab" stroke="#000" stroke-linecap="round" stroke-miterlimit="10" stroke-width="0.25"/>
              <path id="Tracé_10182-2" data-name="Tracé 10182" d="M609.209,169.341s-.208-4.471,2.608-3.6" transform="translate(-607.759 -163.5)" fill="none" stroke="#000" stroke-linecap="round" stroke-miterlimit="10" stroke-width="0.25"/>
              <path id="Tracé_10183-2" data-name="Tracé 10183" d="M610.489,168.564s.476-1.833-.866-2.387" transform="translate(-607.578 -163.261)" fill="none" stroke="#000" stroke-linecap="round" stroke-miterlimit="10" stroke-width="0.25"/>
            </g>
            <path id="Tracé_10184-2" data-name="Tracé 10184" d="M607.692,177.62c-.8.187-1.59.359-2.358.5a2.542,2.542,0,0,1-2.107-.53c-.013,0-.013,0-.026-.013-.159-.187-.319-.372-.491-.57-.013-.013-.026-.027-.026-.04-4.546-5.445-4.227-8.029-3.26-10.1,1.391.172,5.829.7,7.512.663C609.627,167.485,610.3,171.817,607.692,177.62Z" transform="translate(-598.828 -151.456)" fill="#f9ca24"/>
          </g>
          <path id="Tracé_10185-2" data-name="Tracé 10185" d="M623.386,179.2a20.269,20.269,0,0,0-14.471,4.541H608.9c-.574.408-1.132.83-1.721,1.283-.92-1.962-3.047-6.941-3.047-6.941l15.556-4.632S621.41,176.126,623.386,179.2Z" transform="translate(1566.317 394.551)" fill="#cc4e0e"/>
          <path id="Tracé_10188-2" data-name="Tracé 10188" d="M621.234,176.35a3.508,3.508,0,0,1-2.672,1.242h-8.574a4.421,4.421,0,0,1-4.421-4.421V160.662h14Z" transform="translate(1566.941 388.982)" fill="#ba7f17"/>
          <path id="Tracé_10189-2" data-name="Tracé 10189" d="M596.732,161.026s-3.227,8.671,3.354,18.6l13.81-5.47-2.39-14.334Z" transform="translate(1562.751 388.618)" opacity="0.2" fill="url(#linear-gradient)"/>
          <path id="Tracé_10190-2" data-name="Tracé 10190" d="M625.972,158.658a15.688,15.688,0,0,0-24.64,0,16.316,16.316,0,0,0-2.958,5.477H609.54v12.509a4.421,4.421,0,0,0,4.421,4.421h8.574a3.511,3.511,0,0,0,2.673-1.242c2.427-2.852,4.551-6.477,4.551-10.422A16.931,16.931,0,0,0,625.972,158.658Z" transform="translate(1563.81 385.509)" fill="#e87658"/>
          <path id="Tracé_10191-2" data-name="Tracé 10191" d="M610.842,156.846v5.477h-14.7a.772.772,0,0,1-.3-1.478l5.688-2.506.09-1.493Z" transform="translate(1562.508 387.321)" fill="#3c427f"/>
          <path id="Tracé_10192-2" data-name="Tracé 10192" d="M608.978,156.846V161.4a17.142,17.142,0,0,0-9.311-3.063l.09-1.493Z" transform="translate(1564.372 387.321)" fill="#30336b"/>
          <path id="Tracé_10193-2" data-name="Tracé 10193" d="M605.531,158.211a.565.565,0,1,1-.565-.565A.565.565,0,0,1,605.531,158.211Z" transform="translate(1566.433 387.668)" fill="#fff"/>
          <path id="Tracé_10198-2" data-name="Tracé 10198" d="M649.883,241.514c-14.123-3.561-28.624-13.414-28.624-13.414l1.329-2.459c-2.958-1.615-1.207-5.176-1.329-11.966-.1-6.789-.83-12.734-.83-12.734l-.014.014c-13.49,7.8-43.742,14.229-43.742,14.229l-1.765-6.322a184.093,184.093,0,0,0,28.547-13.2c7.318-4.284,12.223-9.008,16.447-12.342.589-.454,1.147-.876,1.721-1.283h.014q.726-.566,1.494-1.086h.016a19.781,19.781,0,0,1,12.961-3.455c1.147,1.78,2.384,3.7,3.424,5.3.891,1.358,1.631,2.49,2.083,3.123a.049.049,0,0,1,.016.03C647.831,193.713,652.826,209.692,649.883,241.514Z" transform="translate(1553.595 396.262)" fill="#eff3f8"/>
          <path id="Tracé_10200-2" data-name="Tracé 10200" d="M570.867,208.968h0a1.991,1.991,0,0,1-2.161,2.288c-1.775-.189-3.94-1.249-4.439-5.133-.881-6.838,8.237-7.653,11.63-5.266l5.313-1.7,1.163,5.156-5.282,1.391s-2.859,5.085-5.358,3.261S570.867,208.968,570.867,208.968Z" transform="translate(1548.937 405.74)" fill="#ffa9a9"/>
          <path id="Tracé_10201-2" data-name="Tracé 10201" d="M620.43,199.862l-.014.014c-13.49,7.8-43.742,14.229-43.742,14.229l-1.765-6.322a184.092,184.092,0,0,0,28.547-13.2c7.318-4.284,12.223-9.008,16.447-12.342.589-.454,1.147-.876,1.721-1.283h.014q.726-.566,1.494-1.087h.016C631.128,185.451,629.648,194.821,620.43,199.862Z" transform="translate(1553.595 397.342)" fill="#cc4e0e"/>
        </g>
      </g>
    </g>
  </g>
</svg>
