<svg xmlns="http://www.w3.org/2000/svg" xmlns:xlink="http://www.w3.org/1999/xlink" width="375.348" height="435.962" viewBox="0 0 375.348 435.962">
  <defs>
    <clipPath id="clip-path">
      <rect id="Rectangle_17279" data-name="Rectangle 17279" width="58.336" height="57.618" fill="#fc6011"/>
    </clipPath>
    <clipPath id="clip-path-2">
      <rect id="Rectangle_17280" data-name="Rectangle 17280" width="58.336" height="57.617" fill="#fc6011"/>
    </clipPath>
    <clipPath id="clip-path-5">
      <rect id="Rectangle_17285" data-name="Rectangle 17285" width="42.443" height="58.065" fill="#fc6011"/>
    </clipPath>
  </defs>
  <g id="Groupe_12143" data-name="Groupe 12143" transform="translate(-53.588 -142.705)">
    <g id="Circle_Landing" data-name="Circle Landing" transform="translate(-834.956 -1796.774)" opacity="0.4">
      <g id="Groupe_11461" data-name="Groupe 11461" transform="translate(888.543 2159.457)">
        <path id="Tracé_13259" data-name="Tracé 13259" d="M1792.29,2634.181c-19.293-11.139-50.477-11.139-69.645,0-.091.053-.178.1-.266.158-12.341,7.278-16.543,17.453-12.636,26.722,2.077,4.934,6.454,9.614,13.123,13.465,19.3,11.14,50.487,11.14,69.658,0s19.063-29.2-.234-40.344Z" transform="translate(-1569.907 -2547.078)" fill="#2b2d2e"/>
        <path id="Tracé_13260" data-name="Tracé 13260" d="M1744.969,2592.693c-24.252-14-63.578-14-87.672,0-.647.376-1.278.757-1.887,1.143l1.231.49c.55-.349,1.118-.69,1.7-1.029,23.516-13.666,61.915-13.667,85.585,0s23.8,35.911.285,49.577-61.921,13.67-85.6,0c-8.684-5.014-14.2-11.182-16.541-17.659l-1.489.053c2.372,6.682,8.04,13.045,16.989,18.211,24.255,14,63.587,14,87.684,0s23.963-36.783-.292-50.786Z" transform="translate(-1513.602 -2510.811)" fill="#2b2d2e"/>
        <path id="Tracé_13261" data-name="Tracé 13261" d="M1692.263,2552.21c-29.106-16.8-76.324-16.8-105.241,0q-1.781,1.034-3.417,2.124l3.279,1.3q1.41-.923,2.933-1.81c27.387-15.915,72.1-15.915,99.669,0s27.718,41.82.331,57.736-72.11,15.919-99.682,0c-10.474-6.047-16.984-13.533-19.536-21.369l-3.96.145c2.633,8.371,9.538,16.382,20.719,22.837,29.113,16.809,76.33,16.808,105.254,0s28.763-44.155-.35-60.963Z" transform="translate(-1452.14 -2475.417)" fill="#2b2d2e"/>
        <path id="Tracé_13262" data-name="Tracé 13262" d="M1579.15,2469.355c-39.052-22.547-102.391-22.546-141.189,0s-38.6,59.239.454,81.786c16.435,9.489,37.17,14.985,58.565,16.485l-.206-4.9c-19.176-1.492-37.7-6.5-52.458-15.015-35.775-20.655-35.965-54.268-.415-74.927s93.573-20.655,129.349,0c23.18,13.383,31.425,32.2,24.7,49.409l7.932,1.659c7.754-18.938-1.173-39.743-26.727-54.5Z" transform="translate(-1321.111 -2402.973)" fill="#2b2d2e"/>
        <path id="Tracé_13263" data-name="Tracé 13263" d="M1377.211,2523.135c-42.62-24.607-42.849-64.645-.505-89.252s111.468-24.608,154.089,0,42.843,64.645.5,89.252-111.462,24.608-154.082,0Zm154.97-90.059c-21.019-12.136-48.912-18.82-78.542-18.819s-57.447,6.684-78.33,18.82-32.331,28.271-32.232,45.431,11.724,33.3,32.743,45.435,48.916,18.818,78.545,18.818,57.444-6.682,78.327-18.818,32.328-28.272,32.235-45.433-11.727-33.3-32.746-45.433Z" transform="translate(-1266.328 -2371.233)" fill="#2b2d2e"/>
        <path id="Tracé_13264" data-name="Tracé 13264" d="M1403.6,2338.629l-3.394.585c15.107,24.627,10.045,52.488-15.23,74.862l2.837,1.171c15.967-14.051,24.49-30.518,24.39-47.755a55.5,55.5,0,0,0-8.6-28.862Zm-40.951-35.444c-27.7-14.541-63.218-22.5-100.8-22.5-40.028,0-77.614,9.028-105.825,25.423s-43.681,38.2-43.547,61.383,15.839,44.987,44.235,61.381,66.087,25.427,106.115,25.424a240.853,240.853,0,0,0,67.784-9.355l-1.727-1.775c-54.837,16.077-123.762,10.84-169.741-15.705-57.273-33.067-57.576-86.87-.672-119.939,55.173-32.063,144.178-33.038,201.741-2.924l2.433-1.414Z" transform="translate(-1074.666 -2260.217)" fill="#2b2d2e"/>
        <path id="Tracé_13265" data-name="Tracé 13265" d="M1274.643,2233.96c-16.467-9.507-35.657-16.87-57.019-21.882a290.759,290.759,0,0,0-129.436,0c-21.305,5.012-40.413,12.376-56.772,21.882s-29.009,20.6-37.6,32.958c-8.292,11.936-12.458,24.549-12.382,37.488s4.378,25.554,12.8,37.487q.82,1.162,1.687,2.309l3.325-.635c-27.135-35.745-15.642-78.992,34.608-108.194,65.5-38.063,172.425-38.063,238.35,0s66.278,100,.781,138.064c-40.757,23.685-97.555,32.637-150.534,26.842l-.841,1.99a294.32,294.32,0,0,0,32.369,1.759,282.944,282.944,0,0,0,64.68-7.293c21.308-5.014,40.407-12.375,56.772-21.886s29.012-20.6,37.6-32.954c8.288-11.938,12.451-24.549,12.379-37.489s-4.378-25.551-12.8-37.487c-8.72-12.355-21.494-23.447-37.967-32.957Z" transform="translate(-965.752 -2197.13)" fill="#2b2d2e"/>
        <path id="Tracé_13266" data-name="Tracé 13266" d="M1208.487,2189.864c-17.969-10.375-38.9-18.411-62.217-23.877a299.019,299.019,0,0,0-40.156-6.53l.248.653c37.124,3.56,72.777,13.613,101.431,30.156,73.029,42.163,73.415,110.769.867,152.93s-191,42.164-264.025,0-73.409-110.765-.854-152.929a200.057,200.057,0,0,1,27.943-13.351l-.232-.622a202.146,202.146,0,0,0-28.409,13.57c-17.859,10.378-31.665,22.478-41.026,35.964-9.047,13.023-13.589,26.787-13.513,40.906s4.783,27.88,13.973,40.906c9.516,13.484,23.455,25.585,41.424,35.96s38.909,18.411,62.223,23.881a317.219,317.219,0,0,0,141.239,0c23.249-5.468,44.1-13.5,61.954-23.881s31.656-22.476,41.02-35.961c9.043-13.025,13.592-26.789,13.512-40.906s-4.779-27.882-13.973-40.905c-9.516-13.488-23.455-25.585-41.431-35.964Z" transform="translate(-888.543 -2159.457)" fill="#2b2d2e"/>
      </g>
    </g>
    <g id="Find_food_you_love_vector" data-name="Find food you love vector" transform="translate(93.622 142.705)">
      <path id="Tracé_2991" data-name="Tracé 2991" d="M248.582,119.994V361.348a11.5,11.5,0,0,1-11.545,11.4H134.525a11.512,11.512,0,0,1-11.555-11.4V119.994a11.52,11.52,0,0,1,11.555-11.412H237.037a11.511,11.511,0,0,1,11.545,11.412" transform="translate(-27.559 -53.671)" fill="#fc6011" opacity="0.3"/>
      <path id="Tracé_2989" data-name="Tracé 2989" d="M238.977,102.385H136.788a19.7,19.7,0,0,0-19.74,19.507v251.8a19.68,19.68,0,0,0,19.74,19.5H238.977a19.682,19.682,0,0,0,19.749-19.5v-251.8a19.7,19.7,0,0,0-19.749-19.507m.393,8.532a11.512,11.512,0,0,1,11.545,11.412V363.682a11.5,11.5,0,0,1-11.545,11.4H136.857a11.512,11.512,0,0,1-11.554-11.4V122.329a11.52,11.52,0,0,1,11.554-11.412Z" transform="translate(-29.892 -56.006)" fill="#29293d"/>
      <path id="Tracé_2990" data-name="Tracé 2990" d="M239.114,102.039H136.925A20.13,20.13,0,0,0,116.7,122.022v251.8A20.122,20.122,0,0,0,136.925,393.8H239.114a20.123,20.123,0,0,0,20.223-19.973v-251.8a20.131,20.131,0,0,0-20.223-19.983M258.38,373.824a19.169,19.169,0,0,1-19.266,19.019H136.925a19.16,19.16,0,0,1-19.257-19.019v-251.8a19.169,19.169,0,0,1,19.257-19.03H239.114a19.179,19.179,0,0,1,19.266,19.03Z" transform="translate(-30.028 -56.136)" fill="#ccc"/>
      <path id="Tracé_2992" data-name="Tracé 2992" d="M161.065,109.853a2.967,2.967,0,1,1-3,2.973,2.989,2.989,0,0,1,3-2.973" transform="translate(-13.73 -53.192)" fill="#3b414b"/>
      <path id="Tracé_2993" data-name="Tracé 2993" d="M179.105,112.5a2.694,2.694,0,1,1-2.689-2.529,2.614,2.614,0,0,1,2.689,2.529" transform="translate(-7.56 -53.149)" fill="#515760"/>
      <path id="Tracé_2994" data-name="Tracé 2994" d="M173.723,111.325v1.5a1.476,1.476,0,0,1-1.49,1.472h-5.891a1.483,1.483,0,0,1-1.49-1.472v-1.5a1.489,1.489,0,0,1,1.49-1.472h5.891a1.483,1.483,0,0,1,1.49,1.472" transform="translate(-11.057 -53.192)" fill="#1a1f29"/>
      <path id="Tracé_2995" data-name="Tracé 2995" d="M166.535,113.3a3,3,0,1,0-3.008,2.962,2.988,2.988,0,0,0,3.008-2.962m10.833-2.971h-5.892a1.487,1.487,0,0,0-1.489,1.472v1.5a1.48,1.48,0,0,0,1.489,1.47h5.892a1.475,1.475,0,0,0,1.49-1.47v-1.5a1.482,1.482,0,0,0-1.49-1.472m-25.548-1.747h45.366s-4.882.836-4.921,5.364-3.892,5.287-7.344,5.287H164.084c-3.45,0-7.295-.768-7.344-5.287s-4.921-5.364-4.921-5.364m33.227,1.908a2.53,2.53,0,1,0,2.692,2.525,2.615,2.615,0,0,0-2.692-2.525" transform="translate(-16.192 -53.67)" fill="#3e394f"/>
      <path id="Tracé_2996" data-name="Tracé 2996" d="M252.209,120.3V362.682h-2.867V121.328A11.51,11.51,0,0,0,237.8,109.916H135.284a11.52,11.52,0,0,0-11.555,11.412V362.682H121.04V120.3a15.4,15.4,0,0,1,15.446-15.255H236.763A15.389,15.389,0,0,1,252.209,120.3" transform="translate(-28.319 -55.005)" fill="#3e394f"/>
      <path id="Tracé_2997" data-name="Tracé 2997" d="M252.209,292.171v10.577A15.4,15.4,0,0,1,236.763,318H136.486a15.409,15.409,0,0,1-15.446-15.255V292.171h2.689a11.511,11.511,0,0,0,11.555,11.4H237.8a11.5,11.5,0,0,0,11.544-11.4Z" transform="translate(-28.319 15.506)" fill="#3e394f"/>
      <g id="Groupe_2173" data-name="Groupe 2173" transform="translate(138.575 78.548)" style="mix-blend-mode: multiply;isolation: isolate">
        <g id="Groupe_2172" data-name="Groupe 2172">
          <g id="Groupe_2171" data-name="Groupe 2171" clip-path="url(#clip-path)">
            <path id="Tracé_2998" data-name="Tracé 2998" d="M202.932,183.368H163.271a9.309,9.309,0,0,1-9.337-9.223v-39.17a9.309,9.309,0,0,1,9.337-9.223h39.661a9.307,9.307,0,0,1,9.337,9.223v39.17a9.307,9.307,0,0,1-9.337,9.223" transform="translate(-153.934 -125.75)" fill="#fc6011"/>
          </g>
        </g>
      </g>
      <g id="Groupe_2176" data-name="Groupe 2176" transform="translate(203.101 77.354)" style="mix-blend-mode: multiply;isolation: isolate">
        <g id="Groupe_2175" data-name="Groupe 2175">
          <g id="Groupe_2174" data-name="Groupe 2174" clip-path="url(#clip-path-2)">
            <path id="Tracé_2999" data-name="Tracé 2999" d="M249.22,182.5H209.56a9.309,9.309,0,0,1-9.338-9.223v-39.17a9.309,9.309,0,0,1,9.338-9.223H249.22a9.309,9.309,0,0,1,9.338,9.223v39.17a9.309,9.309,0,0,1-9.338,9.223" transform="translate(-200.222 -124.883)" fill="#fc6011"/>
          </g>
        </g>
      </g>
      <g id="Groupe_2179" data-name="Groupe 2179" transform="translate(138.575 148.589)" style="mix-blend-mode: multiply;isolation: isolate">
        <g id="Groupe_2178" data-name="Groupe 2178" transform="translate(0 0)">
          <g id="Groupe_2177" data-name="Groupe 2177" clip-path="url(#clip-path-2)">
            <path id="Tracé_3000" data-name="Tracé 3000" d="M202.932,234.238H163.271a9.309,9.309,0,0,1-9.337-9.223v-39.17a9.309,9.309,0,0,1,9.337-9.223h39.661a9.307,9.307,0,0,1,9.337,9.223v39.17a9.307,9.307,0,0,1-9.337,9.223" transform="translate(-153.934 -176.622)" fill="#fc6011"/>
          </g>
        </g>
      </g>
      <g id="Groupe_2182" data-name="Groupe 2182" transform="translate(203.101 147.394)" style="mix-blend-mode: multiply;isolation: isolate">
        <g id="Groupe_2181" data-name="Groupe 2181" transform="translate(0 0)">
          <g id="Groupe_2180" data-name="Groupe 2180" clip-path="url(#clip-path-2)">
            <path id="Tracé_3001" data-name="Tracé 3001" d="M249.22,233.371H209.56a9.309,9.309,0,0,1-9.338-9.223v-39.17a9.309,9.309,0,0,1,9.338-9.223H249.22a9.309,9.309,0,0,1,9.338,9.223v39.17a9.309,9.309,0,0,1-9.338,9.223" transform="translate(-200.222 -175.754)" fill="#fc6011"/>
          </g>
        </g>
      </g>
      <rect id="Rectangle_17283" data-name="Rectangle 17283" width="44.545" height="3.233" transform="translate(209.292 187.035)" fill="#fff"/>
      <path id="Tracé_3002" data-name="Tracé 3002" d="M217.682,185.464a3.636,3.636,0,1,1,3.641,3.585,3.624,3.624,0,0,1-3.641-3.585" transform="translate(9.758 -26.052)" fill="#fff"/>
      <path id="Tracé_3003" data-name="Tracé 3003" d="M247.938,208.2H205.712S204.012,188,226.54,188.61c13.543.365,18.542,7.347,20.362,12.87a19.628,19.628,0,0,1,1.036,6.724" transform="translate(5.031 -23.521)" fill="#fff"/>
      <path id="Tracé_3004" data-name="Tracé 3004" d="M62.621,169.326l45.453,86.757c5.021,9.584,14.574,14.922,22.687,13.3,6.023-5.606,7.129-16.391,2.108-25.975L87.414,156.653c-5.021-9.584-14.588-14.949-22.7-13.33a16.837,16.837,0,0,0-4.9,9.386,22.961,22.961,0,0,0-.026,8.16,27,27,0,0,0,2.831,8.456" transform="translate(-52.591 -40.688)" fill="#ffc377"/>
      <path id="Tracé_3005" data-name="Tracé 3005" d="M54.9,156.132a25.989,25.989,0,0,0,2.8,16.617l45.454,86.757c5.8,11.081,17.684,16.493,26.383,12.047a13.028,13.028,0,0,0,3.155-2.244c-8.115,1.618-17.666-3.72-22.687-13.3L89.256,216.393l-24.7-47.146a27,27,0,0,1-2.831-8.456,22.993,22.993,0,0,1,.026-8.16,16.833,16.833,0,0,1,4.9-9.386,13.115,13.115,0,0,0-3.676,1.246c-4.349,2.224-7.118,6.518-8.073,11.641" transform="translate(-54.526 -40.61)" fill="#fa9e4a"/>
      <path id="Tracé_3006" data-name="Tracé 3006" d="M66.538,162.4l16.614-5.564a1.551,1.551,0,0,0,.841-2.4,2.8,2.8,0,0,0-1.376-1.033,2.862,2.862,0,0,0-1.759-.037l-16.614,5.564a1.521,1.521,0,0,0-.839,2.4,2.77,2.77,0,0,0,.966.867,2.688,2.688,0,0,0,.41.165,2.847,2.847,0,0,0,1.758.037" transform="translate(-51.149 -36.841)" fill="#fa9e4a"/>
      <path id="Tracé_3007" data-name="Tracé 3007" d="M76.132,180.83l16.614-5.564a1.551,1.551,0,0,0,.841-2.4,2.793,2.793,0,0,0-1.377-1.033,2.847,2.847,0,0,0-1.758-.037l-16.614,5.562a1.522,1.522,0,0,0-.839,2.4,2.746,2.746,0,0,0,.966.867,3.018,3.018,0,0,0,.41.165,2.847,2.847,0,0,0,1.758.037" transform="translate(-47.369 -29.897)" fill="#fa9e4a"/>
      <path id="Tracé_3008" data-name="Tracé 3008" d="M87.016,204.565,103.63,199a1.551,1.551,0,0,0,.841-2.4,2.8,2.8,0,0,0-1.376-1.033,2.851,2.851,0,0,0-1.759-.037L84.721,201.1a1.521,1.521,0,0,0-.839,2.4,2.77,2.77,0,0,0,.966.867,3.073,3.073,0,0,0,2.168.2" transform="translate(-43.081 -20.953)" fill="#fa9e4a"/>
      <path id="Tracé_3009" data-name="Tracé 3009" d="M96.61,223l16.614-5.564a1.552,1.552,0,0,0,.841-2.4A2.8,2.8,0,0,0,112.688,214a2.851,2.851,0,0,0-1.759-.037l-16.614,5.562a1.522,1.522,0,0,0-.839,2.4,2.783,2.783,0,0,0,.966.867,3,3,0,0,0,.41.165A2.857,2.857,0,0,0,96.61,223" transform="translate(-39.301 -14.009)" fill="#fa9e4a"/>
      <path id="Tracé_3010" data-name="Tracé 3010" d="M81.542,184.887c-.427,1.3.457,2.632,1.359,3.665a34.113,34.113,0,0,0,22.434,11.4c.192-.262.383-.523.585-.785q-.059-.508-.1-1.013a37.5,37.5,0,0,0-8.1-10.72c-3.485-2.989-8.06-4.97-12.656-4.563-1.433.121-3.068.668-3.52,2.016" transform="translate(-43.925 -25.698)" fill="#339dd5"/>
      <path id="Tracé_3011" data-name="Tracé 3011" d="M84.707,170.38a2.816,2.816,0,0,0-.22,1.654c.544,6.124,4.808,11.335,9.631,15.225a50.168,50.168,0,0,0,9.324,5.967c.6-2.854-.4-5.82-1.7-8.443a36.6,36.6,0,0,0-12.685-14.277,5.644,5.644,0,0,0-2.212-.994,2.136,2.136,0,0,0-2.138.869" transform="translate(-42.732 -30.721)" fill="#4a4b4d"/>
      <path id="Tracé_3012" data-name="Tracé 3012" d="M86.14,161.483a9.951,9.951,0,0,0,1.678,5.357,28.65,28.65,0,0,0,16.462,12.811,38.246,38.246,0,0,0-7.532-14.93,17.224,17.224,0,0,0-7.4-5.715,2.924,2.924,0,0,0-1.351-.2c-1.172.168-1.8,1.5-1.858,2.676" transform="translate(-42.073 -34.753)" fill="#4a4b4d"/>
      <path id="Tracé_3013" data-name="Tracé 3013" d="M103.245,169.411a.775.775,0,0,0,.127-.012,2.166,2.166,0,0,0-.008-.267l-.084,0A26.539,26.539,0,0,0,93.31,152.9a9.308,9.308,0,0,0-1.4-.9,3.507,3.507,0,0,0-2.668-.373,12.543,12.543,0,0,0,1.836,7.575,30.708,30.708,0,0,0,5.028,6.146c1.917,1.917,4.1,3.866,6.8,4.212a.392.392,0,0,0,.342-.149" transform="translate(-40.871 -37.499)" fill="#4a4b4d"/>
      <path id="Tracé_3014" data-name="Tracé 3014" d="M90.652,147.825a1.432,1.432,0,0,0-.576,1.638,5.766,5.766,0,0,0,2.506,3.24,18.362,18.362,0,0,0,6.283,2.957,4.268,4.268,0,0,0,2.233.107l.243-.012c-.086-.38-.177-.763-.269-1.141a21.142,21.142,0,0,0-9.117-6.668,1.761,1.761,0,0,0-1.3-.121" transform="translate(-40.537 -38.916)" fill="#4a4b4d"/>
      <path id="Tracé_3015" data-name="Tracé 3015" d="M98.893,152.195c.057.15.116.3.173.452A20.43,20.43,0,0,0,98.1,145a13.835,13.835,0,0,0-4.825-6.735c-.68-.5-1.681-.906-2.318-.35a1.947,1.947,0,0,0-.287,1.936,21.978,21.978,0,0,0,8,12.428Z" transform="translate(-40.331 -42.719)" fill="#4a4b4d"/>
      <path id="Tracé_3016" data-name="Tracé 3016" d="M99,197.557c.067.643.138,1.279.227,1.915,4.918.169,9.769-1.395,14.2-3.522a13.188,13.188,0,0,0,3.654-2.335,5.2,5.2,0,0,0,1.7-3.847,2.843,2.843,0,0,0-.537-1.582c-.789-1.022-2.276-1.172-3.573-1.063a18.181,18.181,0,0,0-9.345,3.854A33.627,33.627,0,0,0,99,197.557" transform="translate(-37.003 -24.088)" fill="#339dd5"/>
      <path id="Tracé_3017" data-name="Tracé 3017" d="M98.663,190.56c-.006.515-.013,1.03-.008,1.545a1.755,1.755,0,0,0,.979-.05,52.658,52.658,0,0,0,12.989-5.175,19.786,19.786,0,0,0,5.57-4.282,8.762,8.762,0,0,0,2.237-6.456,2.876,2.876,0,0,0-.633-1.644,2.723,2.723,0,0,0-1.468-.735c-2.275-.487-4.607.494-6.562,1.732-5.693,3.609-9.542,9.353-13.1,15.065" transform="translate(-37.14 -29.158)" fill="#4a4b4d"/>
      <path id="Tracé_3018" data-name="Tracé 3018" d="M99.182,178.3c-.013.29-.025.581-.043.867l.45.021a34.984,34.984,0,0,0,9.854-4.048c3.478-2.091,6.764-5.108,7.486-9.063a3.1,3.1,0,0,0-.53-2.737c-.919-.95-2.518-.684-3.75-.179a19.825,19.825,0,0,0-7.7,6.085,58.651,58.651,0,0,0-5.283,8.345l-.439-.021c-.011.208-.022.417-.035.62a.7.7,0,0,1-.006.11" transform="translate(-36.948 -33.279)" fill="#4a4b4d"/>
      <path id="Tracé_3019" data-name="Tracé 3019" d="M99.054,156.269c-.02.165-.045.325-.063.49a20.713,20.713,0,0,0,6.563-3.072,7.867,7.867,0,0,0,3.3-6.138,1.485,1.485,0,0,0-.739-1.453,1.5,1.5,0,0,0-.767-.015,10.425,10.425,0,0,0-4.932,3c-1.91,1.754-3.871,3.818-4.07,6.39l-.192.136c.144.2.286.4.429.6Z" transform="translate(-37.337 -39.557)" fill="#4a4b4d"/>
      <path id="Tracé_3020" data-name="Tracé 3020" d="M104.492,158.336a32.569,32.569,0,0,0-4.972,10.486,13.789,13.789,0,0,0,7.967-3.675,22.933,22.933,0,0,0,5.37-7.987,4.337,4.337,0,0,0,.42-3.234,1.483,1.483,0,0,0-.581-.749,2,2,0,0,0-1.5-.094c-2.837.662-5.021,2.9-6.707,5.253" transform="translate(-36.798 -36.939)" fill="#4a4b4d"/>
      <path id="Tracé_3021" data-name="Tracé 3021" d="M100.618,184.887c.6-12.523.052-25.218-4.609-37.025-.259-.654.8-.982,1.057-.328,4.564,11.567,5.229,24,4.7,36.286-.565,13.2-1.907,26.377-2.947,39.542-.054.693-1.161.752-1.105.05,1.013-12.829,2.289-25.669,2.9-38.524" transform="translate(-38.197 -39.128)" fill="#4a4b4d"/>
      <path id="Tracé_3022" data-name="Tracé 3022" d="M158.184,203.871a8.707,8.707,0,0,1-1.517,3.094,26.793,26.793,0,0,1-4.292,4.1c-1.814,1.53-3.637,3.05-5.462,4.579-1.7,1.424-3.485,2.8-5.1,4.316-1.38,1.3-2.727,3.14-2.06,5.1.613,1.771,2.685,2.163,4.4,2.062,2.1-.124,4.076-.964,6.195-.837a6.025,6.025,0,0,1,5.423,6.971c-.484,3.688-3.594,6.647-6.61,8.7a48.691,48.691,0,0,1-10.477,4.981c-6.828,2.56-14.661,5.21-18.346,11.724-.3.515-1.161.1-.864-.431.05-.09.112-.171.163-.26a115.367,115.367,0,0,1-9.168-8.093,112.291,112.291,0,0,1-8.455-9.277c-1.337-1.632-2.635-3.3-3.852-5.017a17.133,17.133,0,0,1-2.728-5.149c-.843-2.952,0-6.627,3.086-8.061,2.8-1.308,5.23.273,7.392,1.981.705.563,1.38,1.143,2.028,1.63,1.468,1.1,3.606,2.28,5.5,1.567a3.682,3.682,0,0,0,2.014-4.129c-.251-1.839-1.55-3.423-2.757-4.827a45.494,45.494,0,0,1-3.709-4.827,32.038,32.038,0,0,1-4.659-10.988,6.817,6.817,0,0,1,.842-5.42,4.354,4.354,0,0,1,4.256-1.8c3.741.567,5.714,4.929,9.656,4.914,2.133-.012,2.771-1.966,2.332-3.683a11.324,11.324,0,0,0-3.067-4.866c-2.621-2.707-5.937-4.921-7.673-8.3a7.033,7.033,0,0,1-.77-4.873,6.467,6.467,0,0,1,2.419-3.642,4.69,4.69,0,0,1,4.282-.687c1.814.624,2.987,2.175,4.688,2.97a3.6,3.6,0,0,0,2.58.328,1.776,1.776,0,0,0,1.139-2.082c-.326-1.915-2.045-3.47-3.27-4.929a86.963,86.963,0,0,1-7.62-10.567,10.671,10.671,0,0,1-1.988-5.518,4.811,4.811,0,0,1,2.165-3.957,4.2,4.2,0,0,1,4.349.091c1.132.6,2.717,2.054,4.111,1.6,1.887-.622,1.306-3.481,1.043-4.859-.4-2.112-1.1-4.163-1.519-6.277-.633-3.12-.477-6.644,1.745-9.175s5.923-2.576,8.715-.76c3.288,2.14,4.362,5.876,4.486,9.457.079,2.036-.24,4.086-.1,6.114.124,1.816.91,3.972,2.929,4.594,1.494.472,2.99-.4,4.207-1.107a10.566,10.566,0,0,1,3.679-1.709,3.22,3.22,0,0,1,3.294,1.614,6.77,6.77,0,0,1,.259,4.658,23.407,23.407,0,0,1-5.039,10.354c-1.149,1.37-2.978,2.743-3.166,4.611a2.119,2.119,0,0,0,2.794,2.408c2.318-.688,5.3-3.458,7.542-.906a5.033,5.033,0,0,1,.937,3.77,15.855,15.855,0,0,1-1.478,4.813,39.749,39.749,0,0,1-6.46,10.282c-1.186,1.378-2.551,2.842-2.952,4.637-.435,1.98,1.175,3.242,3.153,3.216,2-.017,3.8-.983,5.767-1.223a4.975,4.975,0,0,1,4.473,1.575,5.759,5.759,0,0,1,1.124,5.43" transform="translate(-38.531 -45.594)" fill="#7c7d7e"/>
      <path id="Tracé_3023" data-name="Tracé 3023" d="M127.824,163.388a124.471,124.471,0,0,0-4.353-23.8q-.424-1.468-.891-2.928a.483.483,0,0,0-.92.288,120.867,120.867,0,0,1,4.935,23.813,153.1,153.1,0,0,1,.573,24.19A204.971,204.971,0,0,1,124.3,209.5c-1.441,8.259-3.291,16.446-5.353,24.579-2.073,8.182-4.362,16.31-6.674,24.431q-.435,1.528-.871,3.058c-.163.573.789.774.952.2,2.327-8.158,4.653-16.319,6.786-24.528,2.141-8.239,4.089-16.53,5.637-24.9a215.74,215.74,0,0,0,3.189-24.525,157.51,157.51,0,0,0-.138-24.437" transform="translate(-32.126 -43.21)" fill="#b6b7b7"/>
      <path id="Tracé_3024" data-name="Tracé 3024" d="M139.568,206.642l-20.8,17.381A137.51,137.51,0,0,0,104.05,202.43c-.388-.467-1.2.032-.81.5A137.372,137.372,0,0,1,118.223,225c.16.293.563.231.77.059l21.3-17.8c.467-.391-.265-1.008-.728-.622" transform="translate(-35.373 -18.379)" fill="#b6b7b7"/>
      <path id="Tracé_3025" data-name="Tracé 3025" d="M141.122,185.283l-17.709,16.84a99.765,99.765,0,0,0-13.251-17.711c-.418-.447-1.059.241-.644.683a98.727,98.727,0,0,1,13.388,18.035.507.507,0,0,0,.768.059q9.09-8.641,18.176-17.283c.441-.42-.29-1.039-.728-.622" transform="translate(-32.912 -25.153)" fill="#b6b7b7"/>
      <path id="Tracé_3026" data-name="Tracé 3026" d="M135.421,168.333a90.18,90.18,0,0,1-9.7,14.452A70.493,70.493,0,0,0,114.732,169c-.441-.431-1.083.256-.644.683a69.514,69.514,0,0,1,11.188,14.18.507.507,0,0,0,.768.059,91.46,91.46,0,0,0,10.246-15.165c.283-.527-.585-.955-.868-.428" transform="translate(-31.116 -31.247)" fill="#b6b7b7"/>
      <path id="Tracé_3027" data-name="Tracé 3027" d="M133.234,152.527a95.446,95.446,0,0,0-7.115,10.433l-9.628-11.215c-.393-.46-1.207.039-.809.5l10.108,11.774a.508.508,0,0,0,.839-.039,93.454,93.454,0,0,1,7.332-10.834c.371-.471-.355-1.1-.728-.622" transform="translate(-30.472 -37.476)" fill="#b6b7b7"/>
      <path id="Tracé_3028" data-name="Tracé 3028" d="M178.727,164.341c2.661,16.446-.138,36.645-8.243,51.261-8.873,16-23.994,25.735-41.366,31.892a43.22,43.22,0,0,1-7.575,2.024,42.324,42.324,0,0,1-1.97-7.667,68.462,68.462,0,0,1,24.862-64.945c9.681-7.742,21.866-12.932,34.291-12.565" transform="translate(-29.271 -32.667)" fill="#4a4b4d"/>
      <path id="Tracé_3029" data-name="Tracé 3029" d="M172.861,167.2a222.863,222.863,0,0,0-17,18.942c-.139-.542-.176-1.152-.269-1.665q-.433-2.391-.867-4.783c-.181-.994-1.773-.854-1.592.146l.987,5.434a7.018,7.018,0,0,0,.6,2.261q-2.942,3.734-5.728,7.588c-2.145,2.977-4.185,6.025-6.175,9.1l-2.7-11.812c-.224-.979-1.818-.843-1.592.146l3.1,13.546c-3.7,5.845-7.153,11.839-10.3,17.991q-1.508-7.453-3.014-14.909c-.2-.987-1.793-.849-1.592.147q1.664,8.228,3.327,16.457a1.06,1.06,0,0,0,.187.4c-.036.073-.077.145-.114.217q-4.594,9.26-8.3,18.913c-.364.947,1.092,1.6,1.458.65,2.575-6.7,5.517-13.26,8.736-19.684l17.52-3.545c1-.2.859-1.776-.148-1.572L132.923,224.5c1.943-3.792,3.956-7.549,6.117-11.225,1.175-2,2.412-3.96,3.65-5.92l17.9-1.816a.79.79,0,0,0-.148-1.572l-16.709,1.7q5.69-8.833,12.207-17.11a2.91,2.91,0,0,0,.59.158,9.232,9.232,0,0,0,2.187-.055l2.986-.27,5.741-.52a.79.79,0,0,0-.148-1.572l-5.052.457c-1.61.146-3.231.365-4.846.428-.112.005-.227.005-.343,0,1.033-1.291,2.065-2.586,3.127-3.854q6.6-7.881,13.922-15.132c.725-.719-.523-1.709-1.243-.993" transform="translate(-28.034 -31.677)" fill="#84878e"/>
      <path id="Tracé_3030" data-name="Tracé 3030" d="M121.9,195.84a25.654,25.654,0,0,1-13.055,34.106,26.238,26.238,0,0,1-34.529-12.9,25.654,25.654,0,0,1,13.055-34.1A26.236,26.236,0,0,1,121.9,195.84" transform="translate(-47.64 -26.512)" fill="#ffa9a9"/>
      <path id="Tracé_3031" data-name="Tracé 3031" d="M63.076,184.435a10.069,10.069,0,0,0,3.761,4.2,28.975,28.975,0,0,0,20.34,4.99,38.816,38.816,0,0,0-13.084-10.549,17.422,17.422,0,0,0-9.124-2.2,2.91,2.91,0,0,0-1.315.366c-1,.629-1.012,2.1-.579,3.194" transform="translate(-51.264 -26.448)" fill="#4a4b4d"/>
      <path id="Tracé_3032" data-name="Tracé 3032" d="M81.514,175.743a7.868,7.868,0,0,0-2.151,3.861,22.035,22.035,0,0,0,1.649,16.188,29.971,29.971,0,0,0,4.438-12.357,13.249,13.249,0,0,0-.767-7.252,2.248,2.248,0,0,0-.623-.865,2.135,2.135,0,0,0-2.547.424" transform="translate(-45.071 -28.627)" fill="#4a4b4d"/>
      <path id="Tracé_3033" data-name="Tracé 3033" d="M180.783,353.61H85.5V208.694l6.941,8.226,6.939-8.226,6.959,8.226,6.941-8.226,6.959,8.226,6.939-8.226,6.939,8.226,6.96-8.226,6.939,8.226,6.939-8.226,6.959,8.226,6.941-8.226Z" transform="translate(-42.323 -15.948)" fill="#fac46d"/>
      <path id="Tracé_3034" data-name="Tracé 3034" d="M92.625,208.694V353.61H67.409l7.944-144.916,8.636,8.226Z" transform="translate(-49.45 -15.948)" fill="#fa9e4a"/>
      <path id="Tracé_3035" data-name="Tracé 3035" d="M97.329,186.823c-2.152,0-1.848,3.292.291,3.292s1.85-3.292-.291-3.292" transform="translate(-38.241 -24.189)" fill="#f25c5c"/>
      <path id="Tracé_3036" data-name="Tracé 3036" d="M102.166,192.16c-2.152,0-1.848,3.292.291,3.292s1.848-3.292-.291-3.292" transform="translate(-36.335 -22.178)" fill="#f25c5c"/>
      <path id="Tracé_3037" data-name="Tracé 3037" d="M97.162,192.994c-2.152,0-1.848,3.292.291,3.292s1.848-3.292-.291-3.292" transform="translate(-38.307 -21.864)" fill="#f25c5c"/>
      <path id="Tracé_3038" data-name="Tracé 3038" d="M102.033,87.527l-2.649,3.578-2.954-2.129,2.642-3.584-3.62-2.6L97.6,79.868l3.63,2.608,2.66-3.6L106.848,81l-2.661,3.6,3.623,2.617-2.162,2.917Z" transform="translate(-38.401 -64.865)" fill="#fc6011"/>
      <path id="Tracé_3039" data-name="Tracé 3039" d="M116.549,95.423a7.009,7.009,0,0,1,5.9-7.991,6.995,6.995,0,1,1-5.9,7.991m6.305-5.409a4.381,4.381,0,1,0,5.07,3.653,4.436,4.436,0,0,0-5.07-3.653" transform="translate(-30.122 -61.672)" fill="#fc6011"/>
      <path id="Tracé_3805" data-name="Tracé 3805" d="M0,0,9.764.048l.048,9.841L.048,9.841Z" transform="translate(67.906 56.577) rotate(-64.264)" fill="#fecfb7"/>
      <path id="Tracé_3040" data-name="Tracé 3040" d="M91.423,96.232a5.943,5.943,0,1,1-5.014,6.788,6.006,6.006,0,0,1,5.014-6.788" transform="translate(-41.993 -58.352)" fill="#fecfb7"/>
      <path id="Tracé_3041" data-name="Tracé 3041" d="M99.521,123.845a4.062,4.062,0,1,1-3.426,4.64,4.107,4.107,0,0,1,3.426-4.64" transform="translate(-38.168 -47.938)" fill="#fc6011"/>
      <path id="Tracé_3042" data-name="Tracé 3042" d="M241.183,291.653c0,26.348-21.625,47.7-48.3,47.7s-48.3-21.357-48.3-47.7,21.624-47.7,48.3-47.7,48.3,21.358,48.3,47.7" transform="translate(-19.044 -2.664)" fill="#f25c5c"/>
      <path id="Tracé_3043" data-name="Tracé 3043" d="M237.9,291.653c0,26.348-21.625,47.7-48.3,47.7s-48.3-21.357-48.3-47.7,21.624-47.7,48.3-47.7,48.3,21.358,48.3,47.7" transform="translate(-20.339 -2.664)" fill="#ffa9a9"/>
      <path id="Tracé_3044" data-name="Tracé 3044" d="M233.754,290.78c0,24.586-20.18,44.516-45.071,44.516s-45.072-19.931-45.072-44.516,20.18-44.515,45.072-44.515,45.071,19.931,45.071,44.515" transform="translate(-19.426 -1.791)" fill="#fff"/>
      <path id="Tracé_3045" data-name="Tracé 3045" d="M198.507,303.819l-27.477-9.972V252.19h2.127v40.192l26.083,9.463Z" transform="translate(-8.623 0.441)" fill="#3e394f"/>
      <path id="Tracé_3046" data-name="Tracé 3046" d="M166.466,257.225l7.424-12.7,7.424,12.7Z" transform="translate(-10.421 -2.447)" fill="#3e394f"/>
      <path id="Tracé_3047" data-name="Tracé 3047" d="M187.7,297.2l14.63-2.5-9.508-11.264Z" transform="translate(-2.053 12.215)" fill="#3e394f"/>
      <g id="Groupe_2185" data-name="Groupe 2185" transform="translate(167.426 247.888)" style="mix-blend-mode: multiply;isolation: isolate">
        <g id="Groupe_2184" data-name="Groupe 2184" transform="translate(0 0)">
          <g id="Groupe_2183" data-name="Groupe 2183" clip-path="url(#clip-path-5)">
            <path id="Tracé_3048" data-name="Tracé 3048" d="M174.63,248.745v43.2l40.883,14.868S229.343,254,174.63,248.745" transform="translate(-174.63 -248.745)" fill="#fecfb7"/>
          </g>
        </g>
      </g>
      <path id="Tracé_3049" data-name="Tracé 3049" d="M176.557,283.1a3.715,3.715,0,1,1-3.715-3.668,3.692,3.692,0,0,1,3.715,3.668" transform="translate(-9.372 10.707)" fill="#3e394f"/>
      <path id="Tracé_3050" data-name="Tracé 3050" d="M224.5,81.37l-7.786,1.19,1.188,7.634-6.305.961-1.188-7.634-7.734,1.18-.974-6.227,7.734-1.18-1.2-7.632,6.305-.962,1.2,7.632,7.784-1.187ZM213.649,69.9l-4.206.642,1.2,7.632-7.735,1.181.65,4.154,7.735-1.181,1.188,7.634,4.206-.642L215.5,81.682l7.783-1.188-.65-4.154-7.784,1.187Z" transform="translate(3.46 -68.699)" fill="#fc6011"/>
      <path id="Tracé_3051" data-name="Tracé 3051" d="M217.118,89.928a8.834,8.834,0,0,1,12.228-1.872,8.588,8.588,0,0,1,1.89,12.084A8.829,8.829,0,0,1,219.005,102a8.578,8.578,0,0,1-1.887-12.072m10.3.734a5.534,5.534,0,0,0-7.659,1.174,5.37,5.37,0,0,0,1.182,7.559,5.53,5.53,0,0,0,7.661-1.162,5.381,5.381,0,0,0-1.185-7.571" transform="translate(8.871 -62.032)" fill="#fc6011"/>
      <rect id="Rectangle_17286" data-name="Rectangle 17286" width="8.484" height="8.59" transform="matrix(0.028, -1, 1, 0.028, 204.377, 38.728)" fill="#fc6011"/>
      <path id="Tracé_3052" data-name="Tracé 3052" d="M221.152,104.556a2.782,2.782,0,0,1,3.857-.587,2.7,2.7,0,0,1,.6,3.81,2.785,2.785,0,0,1-3.859.589,2.707,2.707,0,0,1-.6-3.812" transform="translate(10.915 -55.608)" fill="#fc6011"/>
    </g>
  </g>
</svg>
